<svg width="20" height="20" viewBox="0 0 20 20" fill="none" xmlns="http://www.w3.org/2000/svg">
<path d="M6.1001 10.835L13.7001 14.635" stroke="#CCCCCC" stroke-width="1.5"/>
<path d="M6.1001 8.93476L13.7001 5.13477" stroke="#CCCCCC" stroke-width="1.5"/>
<path d="M15.6 7.03496C17.174 7.03496 18.45 5.75897 18.45 4.18496C18.45 2.61095 17.174 1.33496 15.6 1.33496C14.026 1.33496 12.75 2.61095 12.75 4.18496C12.75 5.75897 14.026 7.03496 15.6 7.03496Z" stroke="#CCCCCC" stroke-width="1.5"/>
<path d="M15.6 18.4349C17.174 18.4349 18.45 17.1589 18.45 15.5849C18.45 14.0109 17.174 12.7349 15.6 12.7349C14.026 12.7349 12.75 14.0109 12.75 15.5849C12.75 17.1589 14.026 18.4349 15.6 18.4349Z" stroke="#CCCCCC" stroke-width="1.5"/>
<path d="M4.2001 12.7349C5.77412 12.7349 7.05011 11.4589 7.05011 9.88491C7.05011 8.3109 5.77412 7.03491 4.2001 7.03491C2.62609 7.03491 1.3501 8.3109 1.3501 9.88491C1.3501 11.4589 2.62609 12.7349 4.2001 12.7349Z" stroke="#CCCCCC" stroke-width="1.5"/>
</svg>
