<svg width="16" height="20" viewBox="0 0 16 20" fill="none" xmlns="http://www.w3.org/2000/svg">
<path d="M6.28125 1.0625H2.15625C1.58671 1.0625 1.125 1.52421 1.125 2.09375V17.9063C1.125 18.4758 1.58671 18.9375 2.15625 18.9375H13.8438C14.4133 18.9375 14.875 18.4758 14.875 17.9063V9.65625M6.28125 1.0625H6.625C11.1814 1.0625 14.875 4.75615 14.875 9.3125V9.65625M6.28125 1.0625C7.98992 1.0625 9.375 2.44762 9.375 4.15625V5.53125C9.375 6.10079 9.83673 6.5625 10.4063 6.5625H11.7813C13.4899 6.5625 14.875 7.94762 14.875 9.65625M5.25 12.75L7.3125 14.8125L10.75 10" stroke="#ADADAF" stroke-width="1.5" stroke-linecap="round" stroke-linejoin="round"/>
</svg>
