<svg width="21" height="21" viewBox="0 0 21 21" fill="none" xmlns="http://www.w3.org/2000/svg">
<path d="M7.12113 7.22668L13.7315 13.5072M1.95554 16.7333C1.37257 17.3162 1.37257 18.2614 1.95554 18.8444C2.5385 19.4273 3.48368 19.4273 4.06664 18.8444L6.46964 16.4414C7.28592 15.6251 8.42897 15.2241 9.57632 15.3516L11.6035 15.5769C12.1771 15.6406 12.7487 15.4402 13.1568 15.0321L19.2282 8.96061C19.5992 8.58963 19.5992 7.98809 19.2282 7.61709L17.05 5.43884L13.25 6.59995L14.6221 3.01106L13.1828 1.57171C12.8118 1.20071 12.2103 1.20071 11.8393 1.57171L5.76791 7.64312C5.35978 8.05126 5.1593 8.62279 5.22304 9.1964L5.44829 11.2236C5.57577 12.3709 5.1748 13.514 4.35853 14.3303L1.95554 16.7333Z" stroke="#ADADAF" stroke-width="1.5"/>
</svg>
