<svg width="25" height="20" viewBox="0 0 25 20" fill="none" xmlns="http://www.w3.org/2000/svg">
<path d="M24.9596 2.34491C24.0679 2.74077 23.1096 3.00737 22.1038 3.12755C23.1308 2.51255 23.9195 1.53805 24.2901 0.376728C23.3298 0.946281 22.2653 1.36032 21.1324 1.58349C20.2265 0.617072 18.9329 0.0131836 17.503 0.0131836C14.2927 0.0131836 11.9337 3.00839 12.6587 6.1177C8.52747 5.91068 4.86376 3.93138 2.41084 0.923053C1.10814 3.15784 1.73525 6.08134 3.94883 7.56176C3.1349 7.53551 2.36741 7.31234 1.69789 6.93971C1.64336 9.24316 3.29445 11.3982 5.68577 11.8778C4.98594 12.0677 4.21947 12.1121 3.43988 11.9627C4.07203 13.9379 5.90793 15.375 8.08515 15.4154C5.99477 17.0544 3.36111 17.7865 0.723389 17.4754C2.92384 18.8862 5.53833 19.7092 8.34569 19.7092C17.5777 19.7092 22.7935 11.9122 22.4785 4.91901C23.4499 4.21717 24.2932 3.34163 24.9596 2.34491Z" fill="white"/>
</svg>
