<svg width="132" height="28" viewBox="0 0 132 28" fill="none" xmlns="http://www.w3.org/2000/svg">
<path d="M5.59394 0H0.924104C0.673421 0 0.470215 0.203206 0.470215 0.453889V9.25343L5.59394 0Z" fill="white"/>
<path d="M0.470215 12.0837C0.484966 12.0844 0.499854 12.0847 0.514878 12.0847H7.63449C8.19177 12.0847 8.62964 12.5608 8.58212 13.1151L7.96605 20.3C7.8785 21.321 9.24947 21.7371 9.74607 20.8403L17.144 7.4795C17.4944 6.84673 17.0359 6.07081 16.3117 6.07081H9.19205C8.63477 6.07081 8.1969 5.59472 8.24442 5.04048L8.67662 0H15.8612C22.4817 0 25.4495 8.32727 20.3291 12.537L16.3264 15.8278C16.0642 16.0434 16.0126 16.4255 16.2081 16.7032L23.1152 26.518C23.3271 26.8189 23.112 27.2333 22.7441 27.2333H0.924104C0.673421 27.2333 0.470215 27.03 0.470215 26.7794V12.0837Z" fill="white"/>
<path d="M78.2468 14.7425V21.624H82.0477V13.8979C82.0477 12.987 81.8494 12.192 81.4517 11.5129C81.0709 10.8173 80.5244 10.279 79.8123 9.89819C79.0997 9.50058 78.2718 9.30182 77.3277 9.30182C76.4004 9.30182 75.5802 9.50058 74.8685 9.89819C74.6793 9.99927 74.5013 10.1123 74.3343 10.2368C74.244 10.304 74.1573 10.3747 74.0733 10.4487V4.08496H70.2725V21.624H74.0733V14.7425C74.0733 14.3285 74.1646 13.9641 74.347 13.6494C74.529 13.3181 74.7773 13.0696 75.0919 12.9041C75.4068 12.7219 75.7709 12.6308 76.1848 12.6308C76.7812 12.6308 77.2701 12.8296 77.6509 13.227C78.0485 13.608 78.2468 14.1131 78.2468 14.7425Z" fill="white"/>
<path fill-rule="evenodd" clip-rule="evenodd" d="M36.016 14.3948V21.624H32.1162V4.08496H39.2704C40.4301 4.08496 41.4486 4.30859 42.3264 4.75558C43.2038 5.18623 43.8914 5.79081 44.3885 6.56914C44.885 7.34751 45.1333 8.24199 45.1333 9.25217C45.1333 10.279 44.885 11.1816 44.3885 11.96C43.8914 12.7219 43.1961 13.3181 42.3015 13.7487C41.8027 13.989 41.2548 14.1622 40.6579 14.2684L46.2766 21.624H41.6556L36.4245 14.3948H36.016ZM36.016 11.5129H38.7988C39.5772 11.5129 40.1736 11.3141 40.5876 10.9166C41.0179 10.5192 41.2335 9.98084 41.2335 9.30182C41.2335 8.6726 41.0265 8.1509 40.6121 7.7369C40.1982 7.32269 39.6022 7.11567 38.8238 7.11567H36.016V11.5129Z" fill="white"/>
<path fill-rule="evenodd" clip-rule="evenodd" d="M48.7849 21.1022C49.812 21.6321 50.9794 21.8972 52.2876 21.8972C53.2984 21.8972 54.2257 21.7232 55.0704 21.3755C55.9146 21.0275 56.6354 20.5058 57.2318 19.8104L55.1448 17.7235C54.7803 18.1375 54.3582 18.4522 53.8775 18.6677C53.3973 18.8662 52.8595 18.9658 52.2626 18.9658C51.6172 18.9658 51.0539 18.8332 50.5737 18.5682C50.1098 18.2867 49.7458 17.8975 49.4807 17.4006C49.3972 17.2282 49.3282 17.0447 49.2728 16.8499L57.9271 16.8293C57.9934 16.5146 58.0347 16.2413 58.051 16.0095C58.0628 15.9229 58.0719 15.8384 58.0796 15.7557C58.0837 15.7148 58.0864 15.6744 58.0892 15.6345C58.0933 15.5745 58.0964 15.5155 58.0982 15.4577L58.1001 15.3938L58.101 15.3138C58.101 14.1379 57.8364 13.0945 57.3062 12.1836C56.7929 11.2727 56.0807 10.5606 55.1698 10.0471C54.2588 9.53383 53.2067 9.27698 52.0148 9.27698C50.7888 9.27698 49.6877 9.55022 48.7105 10.0967C47.7332 10.6433 46.9548 11.397 46.3752 12.3576C45.8119 13.3015 45.5305 14.3781 45.5305 15.5871C45.5305 16.7961 45.8205 17.8809 46.3997 18.8414C46.9798 19.8019 47.775 20.5557 48.7849 21.1022ZM49.2737 14.2407C49.2923 14.176 49.3123 14.1126 49.3337 14.0506C49.37 13.9459 49.4104 13.8451 49.4557 13.7487C49.7045 13.2518 50.044 12.8708 50.4743 12.606C50.9214 12.3243 51.4433 12.1836 52.0393 12.1836C52.6021 12.1836 53.0741 12.3079 53.4554 12.5564L53.5067 12.5869L53.5575 12.6195C53.6007 12.6481 53.642 12.6782 53.6824 12.7097C53.7218 12.7405 53.7604 12.7729 53.7976 12.8066C54.0287 13.0158 54.2125 13.2802 54.3496 13.5998C54.4331 13.7868 54.5003 13.9954 54.5516 14.2256L49.2737 14.2407Z" fill="white"/>
<path d="M64.7803 21.8972C63.5376 21.8972 62.4115 21.6239 61.4011 21.0774C60.3912 20.5309 59.5964 19.7771 59.0164 18.8166C58.4368 17.8561 58.1467 16.7794 58.1467 15.5871C58.1467 14.3781 58.4368 13.3015 59.0164 12.3576C59.6128 11.397 60.4157 10.6433 61.4261 10.0967C62.4364 9.55022 63.5707 9.27698 64.8298 9.27698C65.7734 9.27698 66.6344 9.44274 67.4133 9.77385C67.81 9.93098 68.1845 10.1293 68.5358 10.3689C68.888 10.6094 69.218 10.8913 69.5248 11.2149L67.0902 13.6494C66.8087 13.3347 66.4774 13.1029 66.0966 12.9537C65.9246 12.8835 65.7403 12.8298 65.5424 12.7926C65.4521 12.7756 65.3595 12.762 65.2642 12.752C65.1657 12.7416 65.0644 12.735 64.96 12.7321C64.9169 12.7308 64.8738 12.7301 64.8298 12.7301C64.6954 12.7301 64.5647 12.7377 64.4376 12.7525L64.3691 12.7613L64.3264 12.7676C64.2824 12.7744 64.2384 12.7824 64.1948 12.7911C63.897 12.8509 63.6202 12.9548 63.3637 13.1029C62.9498 13.3347 62.6189 13.6658 62.3702 14.0964C62.1382 14.5106 62.022 14.9991 62.022 15.5622C62.022 16.1254 62.1382 16.6223 62.3702 17.0527C62.6189 17.4833 62.9584 17.8228 63.3887 18.0713C63.819 18.3197 64.2996 18.444 64.8298 18.444C65.3268 18.444 65.7652 18.3612 66.1461 18.1956C66.5437 18.0134 66.8832 17.765 67.1646 17.4503L69.5747 19.8849C68.9452 20.5473 68.233 21.0524 67.4383 21.4003C66.6431 21.7314 65.7571 21.8972 64.7803 21.8972Z" fill="white"/>
<path fill-rule="evenodd" clip-rule="evenodd" d="M88.5382 21.8726C87.4289 21.8726 86.4349 21.5993 85.5575 21.0525C84.696 20.506 84.0088 19.7609 83.4955 18.8168C82.9985 17.8729 82.7498 16.7963 82.7498 15.5873C82.7498 14.3783 82.9985 13.3017 83.4955 12.3578C84.0088 11.4136 84.696 10.6685 85.5575 10.1218C86.4349 9.57524 87.4289 9.302 88.5382 9.302C89.3498 9.302 90.0787 9.45932 90.7246 9.77405C91.159 9.98038 91.5398 10.2401 91.867 10.5531V9.55042H95.5935V21.6241H91.867V20.6459C91.6433 20.8575 91.3918 21.045 91.1131 21.2084C91.0623 21.2383 91.0101 21.2676 90.957 21.2959C90.8893 21.332 90.8199 21.3668 90.7491 21.4005C90.0869 21.7152 89.3498 21.8726 88.5382 21.8726ZM89.3089 18.4442C90.1205 18.4442 90.7741 18.1792 91.2711 17.6493C91.7681 17.1028 92.0163 16.4153 92.0163 15.5873C92.0163 15.3056 91.9873 15.0405 91.9292 14.7921C91.8711 14.5436 91.7844 14.3118 91.6687 14.0966C91.4531 13.666 91.1385 13.3349 90.7246 13.1031C90.5008 12.9633 90.2562 12.8629 89.9906 12.8017C89.7841 12.754 89.5654 12.7303 89.3334 12.7303C89.0688 12.7303 88.8183 12.7613 88.5827 12.8234C88.4388 12.8613 88.2999 12.9107 88.1669 12.9716C88.0816 13.0107 87.9985 13.0545 87.9173 13.1031C87.5197 13.3349 87.197 13.666 86.9482 14.0966C86.7167 14.5273 86.601 15.0241 86.601 15.5873C86.601 16.1338 86.7167 16.6225 86.9482 17.0529C87.1802 17.4835 87.5033 17.823 87.9173 18.0715C88.3312 18.3199 88.7951 18.4442 89.3089 18.4442Z" fill="white"/>
<path d="M101.077 9.55042H97.2761V21.6241H101.077V14.9911C101.077 14.2125 101.259 13.633 101.623 13.252C102.005 12.8546 102.51 12.6558 103.139 12.6558C103.454 12.6558 103.735 12.7055 103.984 12.805C104.232 12.9043 104.439 13.045 104.605 13.2272L106.865 10.3702C106.535 10.0058 106.145 9.74101 105.698 9.57525C105.268 9.39305 104.762 9.302 104.182 9.302C102.858 9.302 101.823 9.69139 101.077 10.4697V9.55042Z" fill="white"/>
<path fill-rule="evenodd" clip-rule="evenodd" d="M111.663 27.0397C110.338 27.0397 109.17 26.8077 108.16 26.3443C107.166 25.8972 106.379 25.2595 105.8 24.4312L108.134 22.096C108.565 22.6095 109.046 22.9987 109.576 23.2638C110.122 23.5284 110.776 23.6609 111.538 23.6609C112.482 23.6609 113.219 23.4294 113.749 22.9656C114.296 22.5018 114.569 21.8475 114.569 21.0029V20.2403C114.311 20.4473 114.021 20.6268 113.7 20.7793C113.037 21.094 112.3 21.2513 111.489 21.2513C110.379 21.2513 109.394 20.9865 108.532 20.4564C107.671 19.9265 106.992 19.206 106.495 18.2951C105.998 17.3842 105.75 16.374 105.75 15.2644C105.75 14.1381 105.998 13.1279 106.495 12.2334C106.992 11.3225 107.671 10.6105 108.532 10.0969C109.394 9.56703 110.379 9.302 111.489 9.302C112.317 9.302 113.054 9.45932 113.7 9.77405C113.759 9.80064 113.817 9.82833 113.874 9.85715C114.156 9.99945 114.413 10.1677 114.644 10.3618V9.55042H118.37V20.9036C118.37 22.1458 118.08 23.2225 117.5 24.133C116.921 25.0439 116.126 25.7561 115.116 26.2694C114.105 26.7832 112.954 27.0397 111.663 27.0397ZM112.209 17.8729C112.739 17.8729 113.194 17.7568 113.575 17.525C113.673 17.468 113.765 17.4064 113.85 17.3403C114.113 17.138 114.32 16.8931 114.469 16.6058C114.534 16.4875 114.588 16.365 114.633 16.238C114.691 16.0733 114.734 15.9011 114.76 15.7216C114.782 15.5742 114.793 15.4217 114.793 15.2644C114.793 14.7675 114.685 14.3202 114.469 13.9229C114.271 13.5253 113.972 13.2106 113.575 12.9787C113.194 12.7469 112.739 12.631 112.209 12.631C112.052 12.631 111.902 12.6419 111.756 12.6634L111.68 12.6758L111.613 12.6882C111.468 12.7172 111.329 12.7573 111.196 12.8085C111.122 12.8371 111.049 12.8692 110.979 12.9047C110.933 12.928 110.888 12.9526 110.843 12.9787C110.445 13.2106 110.139 13.5253 109.924 13.9229C109.811 14.1299 109.728 14.3504 109.675 14.5844C109.625 14.7996 109.601 15.0264 109.601 15.2644C109.601 15.728 109.708 16.1668 109.924 16.5811C110.139 16.9784 110.437 17.2931 110.818 17.525C111.031 17.6495 111.264 17.7408 111.516 17.7984C111.733 17.8481 111.964 17.8729 112.209 17.8729Z" fill="white"/>
<path fill-rule="evenodd" clip-rule="evenodd" d="M122.519 21.1022C123.545 21.6321 124.713 21.8972 126.021 21.8972C127.031 21.8972 127.959 21.7232 128.803 21.3755C129.648 21.0275 130.368 20.5058 130.965 19.8104L128.878 17.7235C128.514 18.1375 128.092 18.4522 127.611 18.6677C127.131 18.8662 126.592 18.9658 125.996 18.9658C125.351 18.9658 124.787 18.8332 124.307 18.5682C123.976 18.3674 123.696 18.1116 123.466 17.8009C123.429 17.7515 123.394 17.7005 123.36 17.6482C123.309 17.5691 123.26 17.4864 123.214 17.4006C123.131 17.2282 123.061 17.0447 123.006 16.8499L131.661 16.8293C131.693 16.6739 131.72 16.5285 131.74 16.3934C131.762 16.2546 131.776 16.1267 131.785 16.0095C131.796 15.922 131.806 15.8364 131.813 15.7531C131.827 15.5997 131.834 15.4532 131.834 15.3138C131.834 14.1379 131.569 13.0945 131.04 12.1836C130.526 11.2727 129.814 10.5606 128.903 10.0471C127.992 9.53383 126.941 9.27698 125.748 9.27698C124.523 9.27698 123.421 9.55022 122.443 10.0967C121.467 10.6433 120.688 11.397 120.109 12.3576C119.546 13.3015 119.264 14.3781 119.264 15.5871C119.264 16.7961 119.554 17.8809 120.134 18.8414C120.713 19.8019 121.508 20.5557 122.519 21.1022ZM123.008 14.2407C123.057 14.0665 123.117 13.9023 123.189 13.7487C123.331 13.465 123.502 13.2192 123.703 13.0113C123.774 12.9384 123.848 12.8702 123.926 12.8066C124.015 12.7337 124.109 12.6667 124.208 12.606C124.655 12.3243 125.177 12.1836 125.773 12.1836C126.336 12.1836 126.808 12.3079 127.189 12.5564C127.341 12.645 127.478 12.7505 127.601 12.873C127.799 13.071 127.96 13.3132 128.083 13.5998C128.166 13.7868 128.233 13.9954 128.285 14.2256L123.008 14.2407Z" fill="white"/>
</svg>
