<svg width="118" height="31" viewBox="0 0 118 31" fill="none" xmlns="http://www.w3.org/2000/svg">
<path d="M44.0835 24.8791C42.2271 24.8791 40.6051 24.4574 39.2177 23.6135C37.8299 22.7696 36.7518 21.5977 35.9831 20.0975C35.2142 18.5787 34.8297 16.8161 34.8297 14.8097C34.8297 12.7845 35.2234 11.0031 36.0112 9.46552C36.8174 7.90914 37.952 6.69968 39.4144 5.83713C40.8958 4.95581 42.6492 4.51514 44.6742 4.51514C46.9807 4.51514 48.8932 5.06832 50.4123 6.17465C51.9311 7.28098 52.9155 8.8092 53.3657 10.7594H49.3434C49.0434 9.84055 48.4995 9.128 47.7121 8.62168C46.9243 8.09665 45.9118 7.83416 44.6742 7.83416C42.7053 7.83416 41.1866 8.46232 40.1176 9.71867C39.0487 10.9563 38.5144 12.6626 38.5144 14.8378C38.5144 17.013 39.0395 18.7005 40.0896 19.9008C41.1585 21.0819 42.6024 21.6727 44.4211 21.6727C46.2026 21.6727 47.5431 21.1945 48.4434 20.2381C49.3622 19.2632 49.9153 17.988 50.1027 16.4129H45.1244V13.7127H53.7313V24.5415H50.4123L50.1308 21.9538C49.4935 22.8914 48.6965 23.6135 47.7401 24.1198C46.7837 24.626 45.565 24.8791 44.0835 24.8791Z" fill="white"/>
<path d="M55.7406 24.5416V4.29016H59.3408V24.5416H55.7406Z" fill="white"/>
<path d="M68.3074 24.8792C66.9573 24.8792 65.7385 24.57 64.6507 23.9512C63.5821 23.3324 62.729 22.479 62.0914 21.3916C61.4726 20.285 61.1631 19.0101 61.1631 17.5662C61.1631 16.1224 61.4819 14.8566 62.1195 13.7691C62.7571 12.6627 63.6102 11.8001 64.6791 11.1814C65.7665 10.5626 66.9853 10.2532 68.3354 10.2532C69.6667 10.2532 70.867 10.5626 71.936 11.1814C73.0234 11.8001 73.8765 12.6627 74.4953 13.7691C75.1329 14.8566 75.4517 16.1224 75.4517 17.5662C75.4517 19.0101 75.1329 20.285 74.4953 21.3916C73.8765 22.479 73.0234 23.3324 71.936 23.9512C70.8482 24.57 69.6387 24.8792 68.3074 24.8792ZM68.3074 21.7572C69.245 21.7572 70.0608 21.4104 70.7545 20.7164C71.4482 20.0038 71.795 18.9537 71.795 17.5662C71.795 16.1786 71.4482 15.1379 70.7545 14.4441C70.0608 13.7316 69.2542 13.3753 68.3354 13.3753C67.3794 13.3753 66.5543 13.7316 65.8603 14.4441C65.1854 15.1379 64.8478 16.1786 64.8478 17.5662C64.8478 18.9537 65.1854 20.0038 65.8603 20.7164C66.5543 21.4104 67.3698 21.7572 68.3074 21.7572Z" fill="white"/>
<path d="M83.0304 24.8792C81.7928 24.8792 80.7054 24.6822 79.7678 24.2885C78.8303 23.876 78.0801 23.3136 77.5178 22.6011C76.9551 21.8883 76.6175 21.0632 76.5052 20.1256H80.1335C80.246 20.6695 80.546 21.1385 81.0335 21.5322C81.5397 21.9071 82.1869 22.0945 82.9743 22.0945C83.7618 22.0945 84.3337 21.9355 84.6901 21.6167C85.065 21.2979 85.2528 20.9322 85.2528 20.5197C85.2528 19.9194 84.9901 19.5164 84.465 19.3101C83.94 19.0851 83.2086 18.8696 82.271 18.6633C81.6711 18.5319 81.0615 18.3725 80.4427 18.1851C79.8239 17.9975 79.252 17.7631 78.7273 17.4818C78.2207 17.1818 77.8082 16.8068 77.4897 16.3567C77.1709 15.8879 77.0115 15.3161 77.0115 14.641C77.0115 13.4034 77.4989 12.3627 78.4738 11.5189C79.4678 10.6751 80.8553 10.2532 82.6367 10.2532C84.2868 10.2532 85.5996 10.6376 86.5745 11.4064C87.5685 12.1752 88.1589 13.2346 88.3467 14.5847H84.9432C84.737 13.5534 83.9588 13.0378 82.6087 13.0378C81.9338 13.0378 81.4087 13.169 81.0335 13.4315C80.6774 13.694 80.4992 14.0222 80.4992 14.416C80.4992 14.8285 80.7711 15.1567 81.315 15.4004C81.8585 15.6442 82.5806 15.8692 83.4806 16.0755C84.4558 16.3005 85.3465 16.5536 86.1527 16.8349C86.9778 17.0974 87.6339 17.5006 88.1217 18.0444C88.6091 18.5696 88.853 19.3289 88.853 20.3226C88.8718 21.1853 88.6467 21.9635 88.1778 22.6572C87.7091 23.3509 87.0339 23.8948 86.1527 24.2885C85.2713 24.6822 84.2307 24.8792 83.0304 24.8792Z" fill="white"/>
<path d="M96.4018 24.8792C95.1643 24.8792 94.0768 24.6822 93.1393 24.2885C92.2017 23.876 91.4515 23.3136 90.8888 22.6011C90.3265 21.8883 89.9889 21.0632 89.8763 20.1256H93.5049C93.6175 20.6695 93.9174 21.1385 94.4049 21.5322C94.9111 21.9071 95.558 22.0945 96.3457 22.0945C97.1332 22.0945 97.7051 21.9355 98.0615 21.6167C98.4364 21.2979 98.6239 20.9322 98.6239 20.5197C98.6239 19.9194 98.3615 19.5164 97.8364 19.3101C97.3114 19.0851 96.5801 18.8696 95.6425 18.6633C95.0425 18.5319 94.4329 18.3725 93.8141 18.1851C93.1954 17.9975 92.6234 17.7631 92.0984 17.4818C91.5921 17.1818 91.1796 16.8068 90.8608 16.3567C90.542 15.8879 90.3826 15.3161 90.3826 14.641C90.3826 13.4034 90.8704 12.3627 91.8452 11.5189C92.8393 10.6751 94.2267 10.2532 96.0081 10.2532C97.6582 10.2532 98.9707 10.6376 99.9459 11.4064C100.94 12.1752 101.53 13.2346 101.718 14.5847H98.3146C98.1084 13.5534 97.3302 13.0378 95.9801 13.0378C95.3049 13.0378 94.7798 13.169 94.4049 13.4315C94.0485 13.694 93.8706 14.0222 93.8706 14.416C93.8706 14.8285 94.1422 15.1567 94.6861 15.4004C95.2299 15.6442 95.9517 15.8692 96.852 16.0755C97.8269 16.3005 98.7176 16.5536 99.5238 16.8349C100.349 17.0974 101.005 17.5006 101.493 18.0444C101.981 18.5696 102.224 19.3289 102.224 20.3226C102.243 21.1853 102.018 21.9635 101.549 22.6572C101.08 23.3509 100.405 23.8948 99.5238 24.2885C98.6427 24.6822 97.6021 24.8792 96.4018 24.8792Z" fill="white"/>
<path d="M105.009 30.7299L108.244 23.6136H107.4L101.972 10.5907H105.881L109.791 20.4071L113.869 10.5907H117.695L108.835 30.7299H105.009Z" fill="white"/>
<path d="M8.32922 22.2879L22.52 8.09713L20.1865 5.76355L5.99561 19.9543L8.32922 22.2879Z" fill="white"/>
<path d="M13.9396 8.09713L8.32922 13.7075L5.99561 11.3739L11.606 5.76355L13.9396 8.09713Z" fill="white"/>
<path d="M16.9098 22.2878L22.5201 16.6776L20.1865 14.344L14.5762 19.9542L16.9098 22.2878Z" fill="white"/>
<path fill-rule="evenodd" clip-rule="evenodd" d="M0.562012 27.7218V0H28.2838V27.7218H0.562012ZM3.86222 3.30021H24.9836V24.4215H3.86222V3.30021Z" fill="white"/>
</svg>
