<svg width="123" height="34" viewBox="0 0 123 34" fill="none" xmlns="http://www.w3.org/2000/svg">
<path d="M69.3511 25.2483V5.54553H72.9214V25.2483H69.3511Z" fill="white"/>
<path d="M39.1323 6.0907L46.6808 25.2484H49.6238L57.2544 6.0907H53.303L48.1969 19.5414L43.1381 6.0907H39.1323Z" fill="white"/>
<path fill-rule="evenodd" clip-rule="evenodd" d="M57.7873 24.6216C58.8591 25.2212 60.0584 25.521 61.3848 25.521C62.7107 25.521 63.9009 25.2212 64.9547 24.6216C66.0265 24.0042 66.8712 23.1773 67.489 22.1417C68.1068 21.088 68.4157 19.9163 68.4157 18.6264C68.4157 17.3365 68.1068 16.1828 67.489 15.1654C66.8712 14.1299 66.0265 13.3123 64.9547 12.7128C63.9009 12.0951 62.7016 11.7863 61.3576 11.7863C60.0494 11.7863 58.8591 12.0951 57.7873 12.7128C56.7154 13.3123 55.8708 14.1299 55.253 15.1654C54.6352 16.1828 54.3267 17.3365 54.3267 18.6264C54.3267 19.9163 54.6352 21.088 55.253 22.1417C55.8889 23.1773 56.7335 24.0042 57.7873 24.6216ZM63.1289 21.7602C62.62 22.051 62.0294 22.1961 61.3576 22.1961C60.7035 22.1961 60.122 22.051 59.6134 21.7602C59.1045 21.4513 58.7049 21.0335 58.4141 20.5069C58.1234 19.9616 57.9782 19.344 57.9782 18.6536C57.9782 17.9632 58.1234 17.3546 58.4141 16.8278C58.7049 16.3009 59.1045 15.8921 59.6134 15.6014C60.122 15.2926 60.7035 15.1382 61.3576 15.1382C62.0294 15.1382 62.62 15.2926 63.1289 15.6014C63.6374 15.8921 64.037 16.3009 64.3278 16.8278C64.6185 17.3546 64.7637 17.9632 64.7637 18.6536C64.7637 19.344 64.6185 19.9616 64.3278 20.5069C64.0552 21.0335 63.6556 21.4513 63.1289 21.7602Z" fill="white"/>
<path d="M77.2288 24.7852C78.1369 25.2756 79.1725 25.521 80.3355 25.521C81.4981 25.521 82.5246 25.2847 83.4146 24.8124C84.3232 24.3221 85.0227 23.6407 85.513 22.7685C86.0219 21.8966 86.276 20.8792 86.276 19.7164V12.0859H82.7061V19.6346C82.7061 20.4524 82.4974 21.0879 82.0792 21.5424C81.6615 21.9964 81.0804 22.2237 80.3355 22.2237C79.8448 22.2237 79.4179 22.1235 79.0546 21.9239C78.6912 21.7238 78.4186 21.4331 78.2371 21.0516C78.0553 20.652 77.9645 20.1797 77.9645 19.6346V12.0859H74.3674V19.7164C74.3674 20.8611 74.6215 21.8694 75.1304 22.7413C75.6389 23.6131 76.3384 24.2944 77.2288 24.7852Z" fill="white"/>
<path d="M87.7566 25.2485V12.0861H91.3265V13.2281C91.6456 12.9163 92.009 12.6537 92.4165 12.4404C93.1795 12.0225 94.0427 11.8136 95.0052 11.8136C95.9138 11.8136 96.7403 12.0225 97.4851 12.4404C98.1096 12.7753 98.6252 13.2315 99.0328 13.8089C99.473 13.2469 100.011 12.7999 100.646 12.4676C101.446 12.0316 102.336 11.8136 103.317 11.8136C104.298 11.8136 105.179 12.0225 105.96 12.4404C106.742 12.8401 107.359 13.4214 107.814 14.1845C108.268 14.9475 108.495 15.8559 108.495 16.9096V25.2485H104.925V17.4819C104.925 16.7189 104.68 16.1284 104.189 15.7105C103.717 15.2745 103.126 15.0565 102.418 15.0565C101.964 15.0565 101.537 15.1564 101.137 15.3563C100.756 15.5379 100.456 15.8105 100.238 16.1738C100.02 16.5372 99.9105 16.9732 99.9105 17.4819V25.2485H96.3407V17.4819C96.3407 16.7189 96.0953 16.1284 95.6049 15.7105C95.1327 15.2745 94.5421 15.0565 93.8336 15.0565C93.3613 15.0565 92.9341 15.1564 92.5526 15.3563C92.1711 15.5379 91.8713 15.8105 91.6535 16.1738C91.4354 16.5372 91.3265 16.9732 91.3265 17.4819V25.2485H87.7566Z" fill="white"/>
<path fill-rule="evenodd" clip-rule="evenodd" d="M112.642 24.6488C113.714 25.2303 114.94 25.521 116.321 25.521C117.393 25.521 118.383 25.3301 119.291 24.9486C120.218 24.5671 120.999 24.0042 121.635 23.2589L119.537 21.1609C119.137 21.615 118.665 21.9602 118.12 22.1961C117.575 22.4143 116.966 22.5232 116.294 22.5232C115.549 22.5232 114.895 22.3689 114.332 22.06C113.769 21.733 113.332 21.2789 113.024 20.6974C112.908 20.4579 112.814 20.2023 112.745 19.9309L122.371 19.9072C122.444 19.5983 122.489 19.3258 122.507 19.0896C122.544 18.8353 122.562 18.59 122.562 18.3538C122.562 17.1003 122.28 15.983 121.717 15.0019C121.172 14.0027 120.409 13.2215 119.428 12.6583C118.465 12.0769 117.348 11.7863 116.076 11.7863C114.786 11.7863 113.614 12.0951 112.56 12.7128C111.507 13.3123 110.671 14.1299 110.053 15.1654C109.454 16.1828 109.154 17.3456 109.154 18.6536C109.154 19.9798 109.463 21.1609 110.081 22.1961C110.716 23.2317 111.57 24.0495 112.642 24.6488ZM112.748 17.2596C112.812 17.0187 112.895 16.793 112.996 16.5825C113.287 16.0012 113.696 15.556 114.223 15.2472C114.749 14.9202 115.367 14.7566 116.076 14.7566C116.748 14.7566 117.311 14.902 117.765 15.1927C118.238 15.4652 118.592 15.8649 118.828 16.3918C118.951 16.6454 119.048 16.9285 119.12 17.2411L112.748 17.2596Z" fill="white"/>
<path fill-rule="evenodd" clip-rule="evenodd" d="M17.1917 33.1626C26.3495 33.1626 33.7729 25.7392 33.7729 16.5814C33.7729 7.42374 26.3495 0 17.1917 0C8.03409 0 0.610352 7.42374 0.610352 16.5814C0.610352 25.7392 8.03409 33.1626 17.1917 33.1626ZM24.059 6.43231C24.2559 6.59871 24.3691 6.84338 24.3691 7.10111L24.3687 10.4324L24.3691 10.6517L24.3687 10.6779V21.8292C24.3687 23.7662 22.7986 25.336 20.8619 25.336C18.9252 25.336 17.3553 23.7662 17.3553 21.8292C17.3553 19.8926 18.9252 18.3226 20.8619 18.3226C21.5006 18.3226 22.0995 18.4934 22.6151 18.7918V11.6865L13.8483 13.1479V23.5828C13.8483 25.5194 12.2783 27.0892 10.3416 27.0892C8.40493 27.0892 6.83499 25.5194 6.83499 23.5828C6.83499 21.6462 8.40493 20.076 10.3416 20.076C10.9804 20.076 11.5795 20.2468 12.0949 20.5451L12.0953 12.405L12.0949 12.1858L12.0953 12.1596V8.85441C12.0953 8.42602 12.4051 8.0602 12.8281 7.9897L23.3481 6.23639C23.6022 6.19402 23.8622 6.26567 24.059 6.43231Z" fill="white"/>
</svg>
