<svg width="95" height="23" viewBox="0 0 95 23" fill="none" xmlns="http://www.w3.org/2000/svg">
<path fill-rule="evenodd" clip-rule="evenodd" d="M15.7568 6.2989C15.3024 6.45558 15.061 6.95101 15.2177 7.40546L18.2611 16.2333L17.0442 17.4502L7.93 14.6553C7.47041 14.5144 6.9836 14.7727 6.84267 15.2323C6.70174 15.6919 6.96006 16.1787 7.41964 16.3196L17.0343 19.2679C17.3423 19.3624 17.6772 19.279 17.905 19.0512L19.8768 17.0794C20.1122 16.844 20.1927 16.495 20.0842 16.1803L16.8634 6.83808C16.7067 6.38362 16.2113 6.14223 15.7568 6.2989Z" fill="white"/>
<path fill-rule="evenodd" clip-rule="evenodd" d="M3.0268 0C2.5461 0 2.1564 0.389691 2.1564 0.870399C2.1564 1.3519 1.76751 1.7408 1.28601 1.7408C0.805297 1.7408 0.415607 2.13049 0.415607 2.6112C0.415607 3.0919 0.805297 3.4816 1.28601 3.4816C1.76751 3.4816 2.1564 3.87049 2.1564 4.35199C2.1564 4.8327 2.5461 5.22239 3.0268 5.22239C3.50751 5.22239 3.8972 4.8327 3.8972 4.35199C3.8972 3.87049 4.28609 3.4816 4.7676 3.4816C5.24831 3.4816 5.638 3.0919 5.638 2.6112C5.638 2.13049 5.24831 1.7408 4.7676 1.7408C4.28609 1.7408 3.8972 1.3519 3.8972 0.870399C3.8972 0.389691 3.50751 0 3.0268 0Z" fill="#CA2C6C"/>
<path fill-rule="evenodd" clip-rule="evenodd" d="M10.5716 0C10.0909 0 9.70124 0.389691 9.70124 0.870399C9.70124 2.07354 8.72838 3.0464 7.52524 3.0464C7.04453 3.0464 6.65484 3.43609 6.65484 3.9168C6.65484 4.3975 7.04453 4.78719 7.52524 4.78719C8.72838 4.78719 9.70124 5.76005 9.70124 6.96319C9.70124 7.4439 10.0909 7.83359 10.5716 7.83359C11.0523 7.83359 11.442 7.4439 11.442 6.96319C11.442 5.76005 12.4149 4.78719 13.618 4.78719C14.0987 4.78719 14.4884 4.3975 14.4884 3.9168C14.4884 3.43609 14.0987 3.0464 13.618 3.0464C12.4149 3.0464 11.442 2.07354 11.442 0.870399C11.442 0.389691 11.0523 0 10.5716 0ZM10.5716 3.33358C10.745 3.54783 10.9406 3.74339 11.1549 3.9168C10.9406 4.0902 10.745 4.28576 10.5716 4.50001C10.3982 4.28576 10.2027 4.0902 9.98842 3.9168C10.2027 3.74339 10.3982 3.54783 10.5716 3.33358Z" fill="#EC812B"/>
<path fill-rule="evenodd" clip-rule="evenodd" d="M4.63803 8.7408C4.63803 7.77938 3.85865 7 2.89723 7C1.93582 7 1.15644 7.77938 1.15644 8.7408C1.15644 9.70221 1.93582 10.4816 2.89723 10.4816C3.85865 10.4816 4.63803 9.70221 4.63803 8.7408Z" fill="#5A78D4"/>
<path fill-rule="evenodd" clip-rule="evenodd" d="M15.6718 7.83133C15.6724 7.83056 15.6649 7.83008 15.6477 7.83223C15.6625 7.83319 15.6712 7.83211 15.6718 7.83133ZM14.9876 8.08652C14.8515 8.1571 14.6998 8.2433 14.5329 8.34655C13.6699 8.88057 12.5662 9.76909 11.4441 10.8911C10.3221 12.0132 9.43359 13.1169 8.89957 13.9799C8.79632 14.1467 8.71012 14.2985 8.63954 14.4346C8.77561 14.364 8.92741 14.2778 9.09426 14.1746C9.95722 13.6405 11.061 12.752 12.183 11.63C13.305 10.508 14.1936 9.4042 14.7276 8.54124C14.8308 8.37439 14.917 8.22259 14.9876 8.08652ZM8.38436 15.1188C8.38513 15.1182 8.38621 15.1095 8.38525 15.0946C8.3831 15.1119 8.38358 15.1194 8.38436 15.1188ZM7.97949 14.6889C7.96462 14.6879 7.95599 14.689 7.95539 14.6898C7.95479 14.6906 7.96222 14.691 7.97949 14.6889ZM15.2419 7.42648C15.2441 7.40921 15.2436 7.40177 15.2428 7.40237C15.242 7.40297 15.241 7.4116 15.2419 7.42648ZM13.6169 6.86626C12.6095 7.48968 11.4013 8.4721 10.2132 9.6602C9.02513 10.8483 8.0427 12.0564 7.41929 13.0638C7.11132 13.5615 6.86445 14.0523 6.73895 14.4929C6.63668 14.8521 6.5091 15.5527 7.01526 16.0589C7.52143 16.565 8.22208 16.4375 8.58119 16.3352C9.02187 16.2097 9.51265 15.9628 10.0103 15.6549C11.0177 15.0314 12.2259 14.049 13.4139 12.8609C14.602 11.6728 15.5845 10.4647 16.2079 9.45729C16.5158 8.95963 16.7627 8.46885 16.8882 8.02817C16.9905 7.66906 17.1181 6.96841 16.6119 6.46224C16.1057 5.95608 15.4051 6.08366 15.046 6.18593C14.6053 6.31142 14.1145 6.5583 13.6169 6.86626Z" fill="white"/>
<path d="M29.169 17.6148C28.3434 17.6148 27.5807 17.4679 26.8811 17.174C26.1814 16.8661 25.5727 16.4533 25.0549 15.9356C24.5511 15.4178 24.1523 14.8091 23.8584 14.1094C23.5786 13.4097 23.4386 12.668 23.4386 11.8844V11.8424C23.4386 11.0588 23.5786 10.3171 23.8584 9.61743C24.1523 8.90376 24.5511 8.28804 25.0549 7.77027C25.5727 7.23852 26.1814 6.81871 26.8811 6.51085C27.5947 6.20299 28.3644 6.04906 29.19 6.04906C30.2395 6.04906 31.1071 6.22398 31.7928 6.57382C32.4925 6.92366 33.1012 7.38545 33.619 7.95919L32.0447 9.65941C31.6529 9.2536 31.2331 8.92475 30.7853 8.67286C30.3515 8.40698 29.8127 8.27404 29.169 8.27404C28.7072 8.27404 28.2804 8.372 27.8886 8.56791C27.4968 8.74983 27.1609 9.00171 26.8811 9.32357C26.6012 9.63143 26.3773 10.0023 26.2094 10.4361C26.0554 10.8699 25.9785 11.3247 25.9785 11.8004V11.8424C25.9785 12.3322 26.0554 12.794 26.2094 13.2278C26.3773 13.6616 26.6082 14.0394 26.9021 14.3613C27.1959 14.6831 27.5458 14.942 27.9516 15.1379C28.3574 15.3198 28.8052 15.4108 29.295 15.4108C29.8967 15.4108 30.4214 15.2848 30.8692 15.033C31.331 14.7671 31.7648 14.4312 32.1707 14.0254L33.703 15.5367C33.1572 16.1525 32.5345 16.6562 31.8348 17.048C31.1351 17.4259 30.2465 17.6148 29.169 17.6148Z" fill="white"/>
<path d="M40.0901 15.4108C40.6079 15.4108 41.0697 15.3198 41.4755 15.1379C41.8953 14.942 42.2521 14.6831 42.546 14.3613C42.8399 14.0394 43.0638 13.6686 43.2177 13.2488C43.3716 12.815 43.4486 12.3602 43.4486 11.8844V11.8424C43.4486 11.3526 43.3646 10.8909 43.1967 10.457C43.0288 10.0232 42.7909 9.64542 42.483 9.32357C42.1892 9.00171 41.8323 8.74983 41.4125 8.56791C41.0067 8.372 40.5519 8.27404 40.0481 8.27404C39.5444 8.27404 39.0826 8.372 38.6628 8.56791C38.2569 8.74983 37.9071 9.00171 37.6132 9.32357C37.3194 9.63143 37.0955 10.0023 36.9415 10.4361C36.7876 10.8699 36.7107 11.3247 36.7107 11.8004V11.8424C36.7107 12.3322 36.7946 12.794 36.9625 13.2278C37.1305 13.6476 37.3614 14.0254 37.6552 14.3613C37.9631 14.6831 38.3199 14.942 38.7257 15.1379C39.1455 15.3198 39.6003 15.4108 40.0901 15.4108ZM40.0481 17.6148C39.2085 17.6148 38.4249 17.4679 37.6972 17.174C36.9835 16.8661 36.3608 16.4533 35.8291 15.9356C35.3113 15.4178 34.9055 14.8091 34.6116 14.1094C34.3177 13.4097 34.1708 12.668 34.1708 11.8844V11.8424C34.1708 11.0448 34.3177 10.2961 34.6116 9.59644C34.9195 8.89676 35.3323 8.28804 35.85 7.77027C36.3818 7.23852 37.0045 6.81871 37.7182 6.51085C38.4459 6.20299 39.2365 6.04906 40.0901 6.04906C40.9437 6.04906 41.7274 6.20299 42.441 6.51085C43.1687 6.80471 43.7914 7.21753 44.3092 7.74928C44.841 8.26705 45.2538 8.87577 45.5476 9.57545C45.8415 10.2611 45.9884 11.0028 45.9884 11.8004V11.8424C45.9884 12.6261 45.8345 13.3677 45.5266 14.0674C45.2328 14.7671 44.82 15.3828 44.2882 15.9146C43.7704 16.4323 43.1477 16.8451 42.4201 17.153C41.6924 17.4609 40.9017 17.6148 40.0481 17.6148Z" fill="white"/>
<path d="M47.3156 6.27995H49.8554V8.00117C50.0373 7.73529 50.2332 7.4904 50.4432 7.2665C50.6671 7.02861 50.9189 6.81871 51.1988 6.63679C51.4927 6.45487 51.8075 6.31494 52.1434 6.21698C52.4932 6.10503 52.885 6.04906 53.3188 6.04906C54.5783 6.04906 55.5508 6.43388 56.2365 7.20353C56.9222 7.97318 57.265 9.00871 57.265 10.3101V17.3629H54.7252V11.0658C54.7252 10.1982 54.5153 9.53347 54.0955 9.07168C53.6897 8.5959 53.1089 8.35801 52.3533 8.35801C51.6116 8.35801 51.0099 8.60289 50.5481 9.09267C50.0863 9.56845 49.8554 10.2401 49.8554 11.1078V17.3629H47.3156V6.27995Z" fill="white"/>
<path d="M59.6394 8.46296H58.2331V6.34292H59.6394V5.54529C59.6394 4.31385 59.9403 3.39727 60.542 2.79554C61.1297 2.20781 61.9624 1.91394 63.0399 1.91394C63.4877 1.91394 63.8725 1.94193 64.1944 1.9979C64.5162 2.05388 64.8171 2.12384 65.0969 2.20781V4.34883C64.8451 4.26487 64.6002 4.2019 64.3623 4.15992C64.1384 4.10394 63.8865 4.07596 63.6066 4.07596C62.6271 4.07596 62.1373 4.6357 62.1373 5.75519V6.36391H65.076V8.46296H62.1793V17.3629H59.6394V8.46296Z" fill="white"/>
<path d="M73.3037 11.0448C73.2617 10.639 73.1708 10.2611 73.0308 9.9113C72.8909 9.54746 72.702 9.2396 72.4641 8.98772C72.2262 8.72184 71.9393 8.51194 71.6035 8.35801C71.2816 8.20408 70.9108 8.12711 70.491 8.12711C69.7073 8.12711 69.0566 8.39999 68.5389 8.94574C68.0351 9.4775 67.7273 10.1772 67.6153 11.0448H73.3037ZM70.7849 17.6148C69.9872 17.6148 69.2386 17.4749 68.5389 17.195C67.8532 16.9151 67.2515 16.5233 66.7337 16.0195C66.2299 15.5157 65.8311 14.914 65.5372 14.2143C65.2434 13.5007 65.0964 12.717 65.0964 11.8634V11.8214C65.0964 11.0238 65.2294 10.2751 65.4953 9.57545C65.7611 8.87577 66.132 8.26705 66.6078 7.74928C67.0975 7.21753 67.6713 6.80471 68.329 6.51085C68.9867 6.20299 69.7143 6.04906 70.512 6.04906C71.3936 6.04906 72.1632 6.20998 72.8209 6.53184C73.4926 6.85369 74.0454 7.28749 74.4792 7.83324C74.927 8.379 75.2628 9.01571 75.4867 9.74338C75.7106 10.4571 75.8226 11.2127 75.8226 12.0103C75.8226 12.1223 75.8156 12.2412 75.8016 12.3672C75.8016 12.4791 75.7946 12.5981 75.7806 12.724H67.6363C67.7762 13.6336 68.1331 14.3333 68.7068 14.8231C69.2945 15.2988 70.0012 15.5367 70.8268 15.5367C71.4566 15.5367 72.0023 15.4248 72.4641 15.2009C72.9259 14.977 73.3807 14.6481 73.8285 14.2143L75.3188 15.5367C74.787 16.1664 74.1503 16.6702 73.4087 17.048C72.681 17.4259 71.8064 17.6148 70.7849 17.6148Z" fill="white"/>
<path d="M80.8291 17.5518C80.3673 17.5518 79.9405 17.4958 79.5487 17.3839C79.1569 17.2719 78.814 17.09 78.5202 16.8381C78.2403 16.5863 78.0234 16.2574 77.8695 15.8516C77.7155 15.4318 77.6386 14.914 77.6386 14.2983V8.46296H76.2322V6.27995H77.6386V3.23634H80.1784V6.27995H83.159V8.46296H80.1784V13.8995C80.1784 14.3893 80.2974 14.7461 80.5352 14.97C80.7731 15.1799 81.109 15.2849 81.5428 15.2849C82.0885 15.2849 82.6133 15.1589 83.1171 14.907V16.9851C82.7952 17.167 82.4524 17.3069 82.0885 17.4049C81.7247 17.5028 81.3049 17.5518 80.8291 17.5518Z" fill="white"/>
<path d="M88.179 17.5518C87.7173 17.5518 87.2905 17.4958 86.8986 17.3839C86.5068 17.2719 86.164 17.09 85.8701 16.8381C85.5902 16.5863 85.3733 16.2574 85.2194 15.8516C85.0655 15.4318 84.9885 14.914 84.9885 14.2983V8.46296H83.5821V6.27995H84.9885V3.23634H87.5283V6.27995H90.509V8.46296H87.5283V13.8995C87.5283 14.3893 87.6473 14.7461 87.8852 14.97C88.1231 15.1799 88.4589 15.2849 88.8927 15.2849C89.4385 15.2849 89.9632 15.1589 90.467 14.907V16.9851C90.1451 17.167 89.8023 17.3069 89.4385 17.4049C89.0746 17.5028 88.6548 17.5518 88.179 17.5518Z" fill="white"/>
<path d="M91.9606 6.27995H94.5005V17.3629H91.9606V6.27995ZM91.8557 2.16583H94.5844V4.57973H91.8557V2.16583Z" fill="white"/>
</svg>
