<svg width="136" height="31" viewBox="0 0 136 31" fill="none" xmlns="http://www.w3.org/2000/svg">
<path d="M59.433 4.57754C59.9024 5.07048 60.6185 5.31697 61.5808 5.31697C62.5431 5.31697 63.2474 5.07048 63.6934 4.57754C64.1397 4.0611 64.3625 3.42729 64.3625 2.6761C64.3625 1.87794 64.1397 1.23242 63.6934 0.739438C63.2474 0.246493 62.5431 0 61.5808 0C60.6185 0 59.9024 0.246493 59.433 0.739438C58.9867 1.23242 58.7639 1.87794 58.7639 2.6761C58.7639 3.42729 58.9867 4.0611 59.433 4.57754Z" fill="white"/>
<path d="M37.0798 7.60571L43.066 26.7258H50.918L56.0941 7.60571H51.3761L47.4811 22.7117H46.6497L42.1154 7.60571H37.0798Z" fill="white"/>
<path d="M75.496 27.3244C72.867 27.3244 70.801 26.7728 69.2988 25.6691C67.8201 24.5424 67.0453 22.9932 66.9749 21.0216H71.3762C71.4466 21.6785 71.8108 22.2771 72.4677 22.817C73.125 23.3569 74.1582 23.627 75.5665 23.627C76.7402 23.627 77.6673 23.4156 78.3481 22.9932C79.0524 22.5708 79.4044 21.9956 79.4044 21.2678C79.4044 20.6341 79.1347 20.1294 78.5948 19.7538C78.0784 19.3782 77.1861 19.1317 75.9184 19.0143L74.2283 18.8383C72.0922 18.6035 70.4491 17.9932 69.2988 17.0073C68.1486 16.0213 67.5735 14.7068 67.5735 13.0635C67.5735 11.749 67.9019 10.6457 68.5593 9.75366C69.2166 8.86161 70.1206 8.1926 71.2709 7.7466C72.4442 7.2771 73.7824 7.04236 75.285 7.04236C77.632 7.04236 79.5336 7.55879 80.9892 8.59167C82.4445 9.62454 83.2075 11.1387 83.278 13.134H78.8763C78.8293 12.4767 78.5008 11.9133 77.8904 11.4438C77.2801 10.9743 76.4 10.7396 75.2497 10.7396C74.2165 10.7396 73.4187 10.9391 72.8553 11.3382C72.2919 11.7372 72.01 12.2537 72.01 12.8875C72.01 13.4978 72.2332 13.9673 72.6791 14.296C73.1485 14.6246 73.8998 14.8476 74.9326 14.965L76.6227 15.141C78.8763 15.3758 80.6369 15.9978 81.9046 17.0073C83.1958 18.0166 83.8414 19.3782 83.8414 21.0916C83.8414 22.3593 83.489 23.4626 82.7851 24.4018C82.1042 25.3172 81.1415 26.0333 79.8977 26.5496C78.6535 27.066 77.1861 27.3244 75.496 27.3244Z" fill="white"/>
<path d="M86.6872 4.57754C87.1571 5.07048 87.8727 5.31697 88.8354 5.31697C89.7978 5.31697 90.5021 5.07048 90.948 4.57754C91.3939 4.0611 91.6171 3.42729 91.6171 2.6761C91.6171 1.87794 91.3939 1.23242 90.948 0.739438C90.5021 0.246493 89.7978 0 88.8354 0C87.8727 0 87.1571 0.246493 86.6872 0.739438C86.2413 1.23242 86.0186 1.87794 86.0186 2.6761C86.0186 3.42729 86.2413 4.0611 86.6872 4.57754Z" fill="white"/>
<path fill-rule="evenodd" clip-rule="evenodd" d="M105.004 27.3944C103.314 27.3944 101.824 27.1247 100.533 26.5848C99.2413 26.0449 98.1498 25.3171 97.2576 24.4018C96.3657 23.4625 95.6849 22.4062 95.2155 21.2325C94.7696 20.0588 94.5464 18.8382 94.5464 17.5705V16.8311C94.5464 15.5166 94.7813 14.2724 95.2507 13.0987C95.7436 11.9015 96.4362 10.8451 97.328 9.92963C98.2438 8.99064 99.3471 8.26295 100.638 7.74651C101.929 7.20659 103.385 6.93665 105.004 6.93665C106.624 6.93665 108.08 7.20659 109.37 7.74651C110.662 8.26295 111.753 8.99064 112.645 9.92963C113.561 10.8451 114.253 11.9015 114.723 13.0987C115.192 14.2724 115.427 15.5166 115.427 16.8311V17.5705C115.427 18.8382 115.192 20.0588 114.723 21.2325C114.277 22.4062 113.608 23.4625 112.716 24.4018C111.824 25.3171 110.732 26.0449 109.441 26.5848C108.15 27.1247 106.671 27.3944 105.004 27.3944ZM105.004 23.2045C106.202 23.2045 107.211 22.9461 108.033 22.4297C108.854 21.8898 109.476 21.1738 109.899 20.2818C110.321 19.3664 110.532 18.3335 110.532 17.1832C110.532 16.0095 110.31 14.9766 109.864 14.0846C109.441 13.1691 108.807 12.4531 107.962 11.9367C107.14 11.3968 106.155 11.1268 105.004 11.1268C103.854 11.1268 102.857 11.3968 102.011 11.9367C101.19 12.4531 100.556 13.1691 100.11 14.0846C99.6638 14.9766 99.441 16.0095 99.441 17.1832C99.441 18.3335 99.652 19.3664 100.075 20.2818C100.521 21.1738 101.155 21.8898 101.976 22.4297C102.798 22.9461 103.807 23.2045 105.004 23.2045Z" fill="white"/>
<path d="M122.248 10.9508C122.08 11.3714 121.939 11.827 121.825 12.3174V7.6057H117.952V26.7258H122.847V15.4931C122.847 14.249 123.21 13.263 123.938 12.5354C124.689 11.7842 125.663 11.4086 126.861 11.4086C128.034 11.4086 128.95 11.7724 129.607 12.5001C130.288 13.2279 130.628 14.1785 130.628 15.3523V26.7258H135.523V15.7748C135.523 12.864 134.936 10.6809 133.762 9.22544C132.588 7.74656 130.863 7.00708 128.586 7.00708H128.375C126.849 7.00708 125.569 7.33575 124.537 7.99301C123.527 8.65031 122.764 9.63625 122.248 10.9508Z" fill="white"/>
<path d="M59.7848 11.2677V26.7258H64.6795V7.60571H57.1089V11.2677H59.7848Z" fill="white"/>
<path d="M87.0396 11.2677V26.7258H91.9338V7.60571H84.3633V11.2677H87.0396Z" fill="white"/>
<path fill-rule="evenodd" clip-rule="evenodd" d="M15.9118 30.6552C24.3768 30.6552 31.2393 23.7927 31.2393 15.3276C31.2393 6.86238 24.3768 0 15.9118 0C7.44661 0 0.584229 6.86238 0.584229 15.3276C0.584229 23.7927 7.44661 30.6552 15.9118 30.6552ZM27.192 13.7371C25.7628 15.4083 23.7497 16.4491 21.5193 16.4491C17.1833 16.4491 13.6684 12.5158 13.6684 7.66382C13.6684 6.44314 13.8909 5.2806 14.293 4.2242C8.85979 5.04938 4.69638 9.7406 4.69638 15.4042C4.69638 17.0567 5.05081 18.6264 5.68781 20.0414C6.33399 19.4403 7.24211 19.0661 8.24792 19.0661C10.2093 19.0661 11.7994 20.4889 11.7994 22.244C11.7994 23.4223 11.0825 24.4509 10.0175 24.9996C11.7539 26.0853 13.8063 26.7128 16.0052 26.7128C22.2508 26.7128 27.3141 21.65 27.3141 15.4042C27.3141 14.8378 27.2722 14.2811 27.192 13.7371Z" fill="white"/>
<mask id="mask0_142_3242" style="mask-type:alpha" maskUnits="userSpaceOnUse" x="0" y="0" width="32" height="31">
<path fill-rule="evenodd" clip-rule="evenodd" d="M15.9118 30.6552C24.3768 30.6552 31.2393 23.7927 31.2393 15.3276C31.2393 6.86238 24.3768 0 15.9118 0C7.44661 0 0.584229 6.86238 0.584229 15.3276C0.584229 23.7927 7.44661 30.6552 15.9118 30.6552ZM27.192 13.7371C25.7628 15.4083 23.7497 16.4491 21.5193 16.4491C17.1833 16.4491 13.6684 12.5158 13.6684 7.66382C13.6684 6.44314 13.8909 5.2806 14.293 4.2242C8.85979 5.04938 4.69638 9.7406 4.69638 15.4042C4.69638 17.0567 5.05081 18.6264 5.68781 20.0414C6.33399 19.4403 7.24211 19.0661 8.24792 19.0661C10.2093 19.0661 11.7994 20.4889 11.7994 22.244C11.7994 23.4223 11.0825 24.4509 10.0175 24.9996C11.7539 26.0853 13.8063 26.7128 16.0052 26.7128C22.2508 26.7128 27.3141 21.65 27.3141 15.4042C27.3141 14.8378 27.2722 14.2811 27.192 13.7371Z" fill="white"/>
</mask>
<g mask="url(#mask0_142_3242)">
<path d="M27.192 13.7371L28.3011 13.5732L27.9412 11.1352L26.3396 13.0082L27.192 13.7371ZM14.2929 4.22425L15.3411 4.62319L16.0247 2.82684L14.1245 3.11545L14.2929 4.22425ZM5.68774 20.0414L4.66506 20.5018L5.30688 21.9277L6.45167 20.8626L5.68774 20.0414ZM10.0175 24.9997L9.50381 24.0025L7.75151 24.9053L9.42285 25.9506L10.0175 24.9997ZM30.1179 15.3276C30.1179 23.1736 23.7576 29.5335 15.9118 29.5335V31.7765C24.9964 31.7765 32.3609 24.4124 32.3609 15.3276H30.1179ZM15.9118 1.12156C23.7576 1.12156 30.1179 7.48185 30.1179 15.3276H32.3609C32.3609 6.24305 24.9964 -1.12146 15.9118 -1.12146V1.12156ZM1.70571 15.3276C1.70571 7.48185 8.06596 1.12156 15.9118 1.12156V-1.12146C6.82716 -1.12146 -0.537354 6.24305 -0.537354 15.3276H1.70571ZM15.9118 29.5335C8.06596 29.5335 1.70571 23.1736 1.70571 15.3276H-0.537354C-0.537354 24.4124 6.82716 31.7765 15.9118 31.7765V29.5335ZM21.5192 17.5708C24.1137 17.5708 26.4268 16.3575 28.0444 14.466L26.3396 13.0082C25.0987 14.4593 23.3855 15.3277 21.5192 15.3277V17.5708ZM12.5468 7.66387C12.5468 13.0134 16.4485 17.5708 21.5192 17.5708V15.3277C17.9179 15.3277 14.7899 12.0184 14.7899 7.66387H12.5468ZM13.2447 3.82531C12.7943 5.00887 12.5468 6.30661 12.5468 7.66387H14.7899C14.7899 6.57978 14.9874 5.5524 15.3411 4.62319L13.2447 3.82531ZM5.81786 15.4042C5.81786 10.3034 9.56791 6.07626 14.4613 5.33309L14.1245 3.11545C8.15149 4.02264 3.5748 9.17794 3.5748 15.4042H5.81786ZM6.71041 19.5811C6.1373 18.3079 5.81786 16.8949 5.81786 15.4042H3.5748C3.5748 17.2185 3.96421 18.9449 4.66506 20.5018L6.71041 19.5811ZM8.24785 17.9447C6.96446 17.9447 5.78178 18.4222 4.9238 19.2203L6.45167 20.8626C6.88606 20.4585 7.51966 20.1877 8.24785 20.1877V17.9447ZM12.9209 22.244C12.9209 19.7555 10.7081 17.9447 8.24785 17.9447V20.1877C9.71045 20.1877 10.6778 21.2226 10.6778 22.244H12.9209ZM10.5311 25.9968C11.9116 25.2853 12.9209 23.9035 12.9209 22.244H10.6778C10.6778 22.9412 10.2532 23.6166 9.50381 24.0025L10.5311 25.9968ZM16.0051 25.5916C14.0225 25.5916 12.1754 25.0261 10.6121 24.0487L9.42285 25.9506C11.3323 27.1445 13.5898 27.8346 16.0051 27.8346V25.5916ZM26.1923 15.4042C26.1923 21.0304 21.6312 25.5916 16.0051 25.5916V27.8346C22.8699 27.8346 28.4353 22.2692 28.4353 15.4042H26.1923ZM26.0824 13.901C26.1546 14.391 26.1923 14.8929 26.1923 15.4042H28.4353C28.4353 14.7828 28.3896 14.1713 28.3011 13.5732L26.0824 13.901Z" fill="white"/>
</g>
</svg>
