<svg width="119" height="37" viewBox="0 0 119 37" fill="none" xmlns="http://www.w3.org/2000/svg">
<path d="M71.0818 32.7013C71.0818 33.0989 71.4139 33.416 71.8115 33.3967L77.7036 33.1152C78.0749 33.0974 78.3667 32.7911 78.3667 32.4198V13.7999C78.3667 13.4043 78.0376 13.0881 77.6425 13.104L71.7504 13.3396C71.3766 13.3546 71.0818 13.6618 71.0818 14.0356V32.7013Z" fill="white"/>
<path d="M71.9977 9.6198C72.7189 10.3414 73.6208 10.7022 74.7035 10.7022C75.8412 10.7022 76.757 10.3414 77.4509 9.6198C78.1727 8.87051 78.5336 7.94078 78.5336 6.83066C78.5336 5.7483 78.1727 4.83246 77.4509 4.08312C76.757 3.33378 75.8412 2.95911 74.7035 2.95911C73.6208 2.95911 72.7189 3.33378 71.9977 4.08312C71.2759 4.83246 70.915 5.7483 70.915 6.83066C70.915 7.94078 71.2759 8.87051 71.9977 9.6198Z" fill="white"/>
<path fill-rule="evenodd" clip-rule="evenodd" d="M53.552 21.4842V31.6048C53.552 31.9399 53.3132 32.2278 52.9836 32.2894L46.9247 33.4216C46.4963 33.502 46.1002 33.1729 46.1002 32.7371V4.61315C46.1002 4.22845 46.4124 3.91663 46.7971 3.91663H58.6727C60.6706 3.91663 62.4194 4.2913 63.918 5.04064C65.4444 5.78993 66.6377 6.81681 67.4979 8.12121C68.3581 9.42561 68.7885 10.952 68.7885 12.7004C68.7885 14.4489 68.3442 15.9892 67.4562 17.3213C66.596 18.6257 65.3888 19.6525 63.8346 20.4019C63.1625 20.714 62.4407 20.9587 61.6693 21.1358L69.5723 31.8923C69.957 32.4159 69.4785 33.1347 68.8471 32.9818L62.3146 31.3979C62.1662 31.3616 62.0342 31.2782 61.9379 31.1596L54.0851 21.4842H53.552ZM53.552 16.1557H57.6317C58.8529 16.1557 59.7826 15.8643 60.4209 15.2815C61.0871 14.6709 61.4202 13.8522 61.4202 12.8253C61.4202 11.8262 61.0871 11.0214 60.4209 10.4108C59.7826 9.77248 58.8529 9.45336 57.6317 9.45336H53.552V16.1557Z" fill="white"/>
<path d="M88.2493 34.0148C87.0004 34.0148 85.7654 33.848 84.5442 33.5149C83.3509 33.1819 82.2266 32.7381 81.1723 32.1831C80.3657 31.725 79.6534 31.2162 79.0349 30.6558C78.7559 30.4026 78.7594 29.9708 79.023 29.7015L82.0018 26.6599C82.2768 26.3791 82.7275 26.3844 83.0273 26.6386C83.5738 27.1016 84.1903 27.4789 84.8773 27.7703C85.8209 28.1588 86.8197 28.3531 87.8745 28.3531C88.485 28.3531 88.9432 28.2698 89.2485 28.1033C89.5816 27.9368 89.7479 27.7009 89.7479 27.3956C89.7479 26.9515 89.5121 26.6185 89.04 26.3965C88.5962 26.1467 87.9996 25.9386 87.25 25.7721C86.5283 25.5778 85.7654 25.3558 84.9607 25.106C84.1556 24.8284 83.3787 24.4677 82.6292 24.0236C81.8796 23.5796 81.2691 22.9551 80.7975 22.1503C80.3533 21.3455 80.1314 20.3186 80.1314 19.0697C80.1314 17.7653 80.4784 16.6275 81.1723 15.6561C81.8935 14.657 82.8928 13.8799 84.1695 13.3249C85.4462 12.7421 86.9448 12.4507 88.6652 12.4507C90.414 12.4507 92.0789 12.756 93.6609 13.3665C95.0066 13.8622 96.3577 14.8224 97.3296 15.8327C97.6012 16.1153 97.5481 16.5651 97.2368 16.8042L93.7914 19.4547C93.5015 19.6776 93.094 19.6323 92.8225 19.3879C92.3494 18.962 91.9022 18.7402 91.2881 18.5285C90.4835 18.2232 89.7479 18.0706 89.0817 18.0706C88.4434 18.0706 87.9857 18.1678 87.7082 18.362C87.4307 18.5285 87.2917 18.7645 87.2917 19.0697C87.2917 19.4305 87.5136 19.7219 87.9579 19.944C88.4295 20.1659 89.0261 20.3741 89.7479 20.5684C90.4974 20.7349 91.2603 20.9569 92.0377 21.2345C92.8423 21.512 93.6053 21.9005 94.327 22.4001C95.0766 22.8719 95.6732 23.5102 96.117 24.315C96.589 25.1199 96.8248 26.1606 96.8248 27.4372C96.8248 29.4632 96.048 31.0727 94.4938 32.266C92.9396 33.432 90.8578 34.0148 88.2493 34.0148Z" fill="white"/>
<path fill-rule="evenodd" clip-rule="evenodd" d="M102.266 32.5575C104.015 33.446 106.026 33.8898 108.302 33.8898C110.106 33.8898 111.716 33.5984 113.131 33.0156C114.366 32.5168 115.438 31.8154 116.348 30.9104C116.608 30.6513 116.593 30.2324 116.333 29.9728L113.531 27.1712C113.247 26.8869 112.784 26.9054 112.486 27.1755C112.01 27.6077 111.489 27.9447 110.925 28.1866C110.176 28.5196 109.302 28.6861 108.302 28.6861C107.248 28.6861 106.36 28.478 105.638 28.0617C104.917 27.6454 104.362 27.0349 103.973 26.23C103.878 26.0262 103.794 25.8124 103.722 25.5886L117.461 25.5248C117.779 25.5233 118.059 25.3066 118.121 24.9944C118.19 24.6537 118.233 24.3439 118.252 24.0653C118.307 23.6212 118.335 23.1911 118.335 22.7748C118.335 20.8043 117.877 19.0559 116.961 17.5295C116.073 15.9753 114.824 14.768 113.215 13.9077C111.633 13.0196 109.815 12.5756 107.761 12.5756C105.652 12.5756 103.751 13.0474 102.058 13.991C100.393 14.9068 99.0746 16.1696 98.1031 17.7793C97.1317 19.3611 96.6462 21.179 96.6462 23.2327C96.6462 25.3142 97.1456 27.1598 98.1448 28.7694C99.144 30.3793 100.518 31.6416 102.266 32.5575ZM103.707 20.9129C103.772 20.7056 103.846 20.5076 103.931 20.3186C104.292 19.5138 104.805 18.8894 105.471 18.4453C106.138 18.0013 106.928 17.7793 107.844 17.7793C108.732 17.7793 109.468 17.9735 110.051 18.3621C110.633 18.7506 111.078 19.3196 111.383 20.0688C111.483 20.3058 111.569 20.5653 111.639 20.8471L103.707 20.9129Z" fill="white"/>
<path d="M109.745 9.68434V4.31137H111.111V9.68434H109.745ZM108.088 5.44854V4.27319H112.767V5.44854H108.088ZM113.006 9.68434V4.27319H113.991L116.067 7.40995H115.602L117.67 4.27319H118.654V9.68434H117.304V6.53229L117.517 6.59335L116.273 8.46318H115.388L114.152 6.59335L114.365 6.53229V9.68434H113.006Z" fill="white"/>
<path d="M10.5244 1.4336C10.5244 1.02046 10.832 0.672047 11.2419 0.620771L16.1567 0.00644517C16.6456 -0.0546598 17.0774 0.326513 17.0774 0.819225V16.9843C17.0774 17.477 16.6456 17.8582 16.1567 17.7971L11.2419 17.1827C10.832 17.1315 10.5244 16.783 10.5244 16.3699V1.4336Z" fill="white"/>
<path d="M0.694824 3.48141C0.694824 3.06832 1.00243 2.71986 1.41235 2.66863L6.32711 2.05431C6.81605 1.99315 7.24785 2.37438 7.24785 2.86709V15.7556C7.24785 16.2483 6.81605 16.6295 6.32711 16.5684L1.41235 15.954C1.00243 15.9028 0.694824 15.5543 0.694824 15.1413V3.48141Z" fill="white"/>
<path d="M26.2865 1.3744C26.6509 1.46559 26.907 1.7932 26.907 2.16906V8.99769C26.907 9.41078 26.5993 9.75924 26.1892 9.81047L21.2746 10.4248C20.7857 10.4859 20.3539 10.1047 20.3539 9.61201V0.94036C20.3539 0.407491 20.8547 0.0164888 21.3717 0.145698L26.2865 1.3744Z" fill="white"/>
<path d="M35.9173 4.21693C35.9173 3.84107 35.6612 3.51341 35.2968 3.42227L30.3821 2.19357C29.8649 2.06431 29.364 2.45531 29.364 2.98823V9.20248C29.364 9.69519 29.7959 10.0764 30.2848 10.0153L35.1995 9.40093C35.6095 9.3497 35.9173 9.00124 35.9173 8.58815V4.21693Z" fill="white"/>
<path d="M35.9174 12.5879L19.9443 12.9975C20.1755 16.0018 22.6807 18.3218 25.6939 18.3218H29.3641V21.8078L0.694824 19.1409V36.2178L35.9174 33.7607V12.5879Z" fill="white"/>
</svg>
