<svg width="131" height="35" viewBox="0 0 131 35" fill="none" xmlns="http://www.w3.org/2000/svg">
<path d="M69.3213 16.7331C68.5033 17.5284 68.0945 18.6872 68.0945 20.2097V29.719H62.6411V11.0411H66.9698V17.2048C67.1768 15.4455 67.6998 14.0271 68.5377 12.9498C69.6735 11.5183 71.3096 10.8025 73.4454 10.8025H74.1614V15.5061H72.7981C71.2985 15.5061 70.1394 15.9151 69.3213 16.7331Z" fill="white"/>
<path fill-rule="evenodd" clip-rule="evenodd" d="M85.8517 27.4354C86.0858 27.0383 86.2788 26.6 86.4312 26.1206V29.7188H90.7599V18.2667C90.7599 16.5398 90.4188 15.131 89.7372 14.0403C89.0556 12.9269 88.0557 12.0975 86.7379 11.5521C85.4429 11.0068 83.8407 10.7341 81.9322 10.7341C81.2729 10.7341 80.5685 10.7455 79.8187 10.7682C79.0689 10.7909 78.3418 10.825 77.6374 10.8705C76.9331 10.9159 76.3197 10.9614 75.7967 11.0068V15.6081C76.5011 15.5627 77.2853 15.5172 78.1488 15.4718C79.0123 15.4264 79.8531 15.3922 80.6711 15.3696C81.4891 15.3468 82.148 15.3355 82.6477 15.3355C83.6477 15.3355 84.3747 15.574 84.829 16.0512C85.2837 16.5284 85.5106 17.2442 85.5106 18.1985V18.2667H82.1364C80.4776 18.2667 79.0123 18.4825 77.7395 18.9143C76.4672 19.3233 75.4789 19.9709 74.7745 20.8571C74.0702 21.7205 73.718 22.8339 73.718 24.1971C73.718 25.4472 74.002 26.5264 74.5699 27.4354C75.1379 28.3217 75.922 29.0033 76.9215 29.4803C77.9441 29.9573 79.126 30.1962 80.4665 30.1962C81.7615 30.1962 82.8524 29.9573 83.7386 29.4803C84.6476 29.0033 85.3519 28.3217 85.8517 27.4354ZM84.9654 24.9813C85.2837 24.4584 85.4656 23.7315 85.5106 22.7999V21.3002H82.1025C81.1481 21.3002 80.4094 21.5387 79.8869 22.0159C79.3872 22.4704 79.1371 23.0952 79.1371 23.8905C79.1371 24.6403 79.3872 25.2537 79.8869 25.7311C80.4094 26.1854 81.1481 26.4128 82.1025 26.4128C82.7159 26.4128 83.2611 26.3107 83.7386 26.1061C84.2383 25.8787 84.6476 25.5038 84.9654 24.9813Z" fill="white"/>
<path d="M102.068 30.3666C100.454 30.3666 99.0455 30.1053 97.8409 29.5824C96.6596 29.0372 95.6708 28.3101 94.8755 27.4011C94.0802 26.4921 93.4895 25.47 93.1035 24.3336C92.7169 23.1748 92.5239 21.9819 92.5239 20.7548V20.1072C92.5239 18.8348 92.7286 17.6191 93.1373 16.4603C93.5466 15.2787 94.1484 14.2334 94.9437 13.3246C95.739 12.4156 96.7278 11.6998 97.9091 11.1772C99.1132 10.6546 100.488 10.3933 102.033 10.3933C103.715 10.3933 105.203 10.7228 106.498 11.3818C107.793 12.018 108.828 12.9155 109.6 14.0744C110.373 15.2332 110.804 16.5625 110.895 18.0622H105.544C105.453 17.2215 105.112 16.5171 104.522 15.949C103.953 15.3582 103.124 15.0628 102.033 15.0628C101.124 15.0628 100.363 15.2901 99.7498 15.7445C99.1587 16.199 98.7156 16.8238 98.4205 17.6191C98.1249 18.4144 97.9773 19.3574 97.9773 20.4481C97.9773 21.4479 98.1138 22.3568 98.3861 23.1748C98.659 23.9701 99.091 24.5948 99.6816 25.0496C100.295 25.4811 101.09 25.6968 102.068 25.6968C102.795 25.6968 103.408 25.572 103.908 25.3219C104.431 25.0496 104.839 24.6858 105.135 24.2315C105.453 23.7543 105.646 23.2089 105.715 22.5954H111.032C110.963 24.1405 110.531 25.5038 109.736 26.6856C108.941 27.8442 107.884 28.7532 106.566 29.4121C105.249 30.0483 103.749 30.3666 102.068 30.3666Z" fill="white"/>
<path fill-rule="evenodd" clip-rule="evenodd" d="M117.144 29.5485C118.371 30.0937 119.779 30.3666 121.37 30.3666C122.938 30.3666 124.324 30.0937 125.528 29.5485C126.732 29.0033 127.732 28.2419 128.528 27.2647C129.323 26.288 129.857 25.1744 130.13 23.9247H125.119C124.892 24.4928 124.46 24.9697 123.824 25.3563C123.188 25.7423 122.37 25.9358 121.37 25.9358C120.28 25.9358 119.393 25.7084 118.712 25.2537C118.03 24.7995 117.53 24.1632 117.212 23.3452C117.034 22.8764 116.906 22.3651 116.828 21.8114H130.47V19.9709C130.47 18.2667 130.107 16.6989 129.379 15.2673C128.652 13.8131 127.596 12.6428 126.21 11.7567C124.847 10.8478 123.165 10.3933 121.165 10.3933C119.643 10.3933 118.28 10.666 117.076 11.2113C115.894 11.734 114.905 12.4497 114.11 13.3586C113.315 14.2675 112.701 15.3014 112.269 16.4603C111.861 17.5964 111.656 18.7893 111.656 20.0391V20.7207C111.656 21.9251 111.861 23.1066 112.269 24.2654C112.701 25.4017 113.315 26.4355 114.11 27.3673C114.928 28.2762 115.939 29.0033 117.144 29.5485ZM116.869 18.7098C116.955 18.2211 117.08 17.778 117.246 17.3805C117.587 16.5398 118.087 15.9036 118.745 15.4718C119.404 15.0401 120.211 14.8243 121.165 14.8243C122.097 14.8243 122.87 15.0401 123.483 15.4718C124.12 15.8808 124.597 16.483 124.915 17.2783C125.087 17.7089 125.212 18.186 125.292 18.7098H116.869Z" fill="white"/>
<path d="M49.6564 29.7189V9.71179H42.6689V4.83777H62.267V9.71179H55.2457V29.7189H49.6564Z" fill="white"/>
<path fill-rule="evenodd" clip-rule="evenodd" d="M17.2017 3.1276C9.42876 3.1276 3.12755 9.42875 3.12755 17.2017C3.12755 24.9745 9.42876 31.276 17.2017 31.276C24.9746 31.276 31.2756 24.9745 31.2756 17.2017C31.2756 9.42875 24.9746 3.1276 17.2017 3.1276ZM0 17.2017C0 7.70144 7.70144 0 17.2017 0C26.7017 0 34.4031 7.70144 34.4031 17.2017C34.4031 26.7021 26.7017 34.4035 17.2017 34.4035C7.70144 34.4035 0 26.7021 0 17.2017Z" fill="white"/>
<path fill-rule="evenodd" clip-rule="evenodd" d="M25.783 11.3698C26.2416 9.92574 24.872 8.56948 23.4325 9.04182L13.6269 12.2593C13.0593 12.4455 12.6158 12.8933 12.435 13.4627L9.39669 23.0335C8.93828 24.4777 10.3077 25.8337 11.7472 25.3615L21.5529 22.144C22.1205 21.9578 22.5639 21.51 22.7447 20.9406L25.783 11.3698ZM17.5881 19.4355C18.8219 19.4355 19.822 18.4354 19.822 17.2016C19.822 15.9678 18.8219 14.9676 17.5881 14.9676C16.3543 14.9676 15.3541 15.9678 15.3541 17.2016C15.3541 18.4354 16.3543 19.4355 17.5881 19.4355Z" fill="white"/>
</svg>
