<svg width="143" height="30" viewBox="0 0 143 30" fill="none" xmlns="http://www.w3.org/2000/svg">
<path d="M116.105 1.3512V27.6992H119.961V1.3512H116.105Z" fill="white"/>
<path fill-rule="evenodd" clip-rule="evenodd" d="M81.2361 28.1243C79.7144 28.1243 78.4432 27.77 77.4224 27.0609C77.3106 26.9836 77.2022 26.9028 77.0965 26.8191V27.699H73.6938V1.77637H77.5785V12.8816C78.5314 12.2689 79.6843 11.9625 81.0375 11.9625C82.5025 11.9625 83.7784 12.3122 84.8654 13.0116C85.9524 13.711 86.7935 14.6703 87.3887 15.8896C87.9937 17.0994 88.296 18.484 88.296 20.0432C88.296 21.5745 87.9984 22.9496 87.4029 24.1691C86.8172 25.3882 85.9946 26.3522 84.9363 27.0609C83.8777 27.77 82.6444 28.1243 81.2361 28.1243ZM77.4366 17.605C77.2096 18.3043 77.0965 19.117 77.0965 20.0432C77.0965 20.9695 77.2096 21.7825 77.4366 22.4818C77.6633 23.1814 78.0321 23.7245 78.5422 24.1123C79.0621 24.4998 79.7522 24.6933 80.6122 24.6933C81.4439 24.6933 82.1245 24.4856 82.6538 24.0698C83.1832 23.6539 83.5753 23.0962 83.8304 22.3967C84.0858 21.688 84.2131 20.9036 84.2131 20.0432C84.2131 19.1927 84.081 18.4178 83.8162 17.7185C83.5517 17.0095 83.1406 16.4472 82.5829 16.0313C82.0347 15.606 81.3304 15.3933 80.4703 15.3933C79.6671 15.3933 79.0148 15.5871 78.5142 15.9746C78.0227 16.3621 77.6633 16.9055 77.4366 17.605Z" fill="white"/>
<path d="M67.5974 18.654V27.6991H71.4533V17.6335C71.4533 15.9605 71.0044 14.609 70.1065 13.5787C69.2181 12.5391 67.8997 12.0193 66.1513 12.0193C65.1304 12.0193 64.1995 12.2461 63.3584 12.6998C62.5882 13.1111 61.9599 13.6764 61.4735 14.3956C61.1107 13.7429 60.6094 13.206 59.97 12.7848C59.2045 12.2745 58.2215 12.0193 57.0214 12.0193C55.9722 12.0193 55.0223 12.2508 54.1717 12.714C53.5289 13.0679 52.9854 13.5184 52.5412 14.0654V12.3879H49.1389V27.6991H53.0232V18.4273C53.0232 17.5484 53.2644 16.8347 53.7464 16.2866C54.2379 15.7289 54.8851 15.4501 55.6884 15.4501C56.5299 15.4501 57.1865 15.7337 57.6591 16.3008C58.1411 16.8584 58.3823 17.643 58.3823 18.654V27.6991H62.2382V18.4273C62.2382 17.8412 62.347 17.3261 62.5646 16.882C62.7912 16.4283 63.103 16.0786 63.5002 15.8329C63.8972 15.5777 64.365 15.4501 64.9038 15.4501C65.7449 15.4501 66.4016 15.7337 66.8741 16.3008C67.3562 16.8584 67.5974 17.643 67.5974 18.654Z" fill="white"/>
<path d="M35.3236 27.5431C36.0795 27.9495 37.0578 28.1528 38.2583 28.1528C39.7608 28.1528 41.0039 27.8268 41.9869 27.1746C42.4534 26.8682 42.8645 26.5165 43.2202 26.1203V27.6991H46.6228V12.3879H42.7381V20.1569C42.7381 21.102 42.6294 21.8675 42.4122 22.4535C42.2041 23.0302 41.9349 23.4696 41.6038 23.772C41.2731 24.0652 40.9188 24.2634 40.5408 24.3675C40.1628 24.4715 39.8081 24.5235 39.4774 24.5235C38.6552 24.5235 38.0171 24.3391 37.5635 23.9706C37.1193 23.602 36.798 23.1437 36.5994 22.5954C36.4011 22.0472 36.2829 21.5037 36.2451 20.9649C36.2072 20.417 36.1883 19.968 36.1883 19.6181V12.3879H32.2756V20.9791C32.2756 21.2344 32.2942 21.6408 32.332 22.1985C32.3699 22.7562 32.4787 23.375 32.6584 24.0557C32.8377 24.7266 33.1357 25.3741 33.5515 25.998C33.9768 26.6216 34.5676 27.1367 35.3236 27.5431Z" fill="white"/>
<path d="M89.998 12.388V27.6992H93.8823V19.8735C93.8823 19.2874 93.9627 18.7628 94.1235 18.2997C94.2843 17.8271 94.5204 17.4208 94.8322 17.0806C95.1443 16.7308 95.5271 16.452 95.9807 16.2441C96.4344 16.0267 96.9401 15.8991 97.4978 15.8613C98.0646 15.8141 98.5608 15.8566 98.9861 15.9889V12.388C98.523 12.3312 98.0598 12.3218 97.5967 12.3596C97.1336 12.388 96.6847 12.4683 96.2499 12.6006C95.8152 12.7235 95.4136 12.8983 95.045 13.1252C94.563 13.4087 94.1566 13.7678 93.8259 14.2026C93.6692 14.4084 93.5273 14.6248 93.4003 14.8518V12.388H89.998Z" fill="white"/>
<path fill-rule="evenodd" clip-rule="evenodd" d="M107.105 28.1243C105.536 28.1243 104.152 27.7889 102.952 27.1177C101.761 26.4374 100.825 25.5064 100.145 24.3248C99.4734 23.1341 99.1379 21.7731 99.1379 20.2419C99.1379 18.5691 99.4686 17.1136 100.13 15.8754C100.792 14.6372 101.704 13.6779 102.867 12.9975C104.029 12.3075 105.367 11.9625 106.879 11.9625C108.485 11.9625 109.851 12.3406 110.976 13.0967C112.1 13.8528 112.932 14.9161 113.471 16.2865C114.01 17.6571 114.199 19.2684 114.038 21.1208H103.287C103.407 22.04 103.693 22.7865 104.142 23.3608C104.766 24.136 105.678 24.5234 106.879 24.5234C107.635 24.5234 108.282 24.3579 108.821 24.0272C109.36 23.6965 109.771 23.2192 110.054 22.5953L113.91 23.7013C113.334 25.1001 112.422 26.1867 111.174 26.9616C109.936 27.7369 108.58 28.1243 107.105 28.1243ZM109.473 16.3432C109.802 16.791 110.024 17.4291 110.137 18.257H103.388C103.539 17.55 103.79 16.9687 104.142 16.5134C104.766 15.71 105.735 15.3083 107.049 15.3083C108.174 15.3083 108.982 15.6533 109.473 16.3432Z" fill="white"/>
<path d="M123.077 27.6992V1.3512H126.933V27.6992H123.077Z" fill="white"/>
<path fill-rule="evenodd" clip-rule="evenodd" d="M131.226 27.5004C131.992 27.9163 132.923 28.1243 134.019 28.1243C135.342 28.1243 136.434 27.8973 137.294 27.4437C137.979 27.0785 138.627 26.5374 139.236 25.8196V27.699H142.61V18.3421C142.61 17.6429 142.582 17.0095 142.525 16.4425C142.468 15.8754 142.289 15.3083 141.986 14.7412C141.448 13.7205 140.654 13.0022 139.605 12.5863C138.555 12.1705 137.355 11.9625 136.004 11.9625C134.161 11.9625 132.705 12.3595 131.637 13.1534C130.569 13.9473 129.841 14.9775 129.454 16.244L132.942 17.3497C133.187 16.6504 133.617 16.1637 134.232 15.8896C134.846 15.6155 135.436 15.4784 136.004 15.4784C137.024 15.4784 137.752 15.6911 138.187 16.1164C138.528 16.4504 138.736 16.9329 138.809 17.5642C138.156 17.6632 137.538 17.7571 136.954 17.8459C135.961 17.9878 135.073 18.1391 134.288 18.2996C133.504 18.4604 132.828 18.6448 132.261 18.8525C131.439 19.1549 130.782 19.5332 130.29 19.9869C129.808 20.4311 129.459 20.9459 129.241 21.5319C129.024 22.118 128.915 22.7656 128.915 23.4743C128.915 24.3248 129.109 25.1044 129.496 25.8135C129.893 26.5127 130.47 27.0751 131.226 27.5004ZM136.628 24.7217C136.146 24.9676 135.55 25.0906 134.841 25.0906C134.397 25.0906 134.014 25.0244 133.693 24.892C133.372 24.7596 133.121 24.5707 132.942 24.3248C132.771 24.0698 132.686 23.7671 132.686 23.4175C132.686 23.1625 132.738 22.9307 132.842 22.723C132.955 22.5149 133.126 22.3261 133.353 22.1558C133.589 21.9761 133.896 21.811 134.274 21.6596C134.605 21.5367 134.988 21.4232 135.422 21.3195C135.857 21.2154 136.429 21.1019 137.138 20.979C137.593 20.8942 138.139 20.7972 138.774 20.6888C138.765 20.9584 138.749 21.2631 138.726 21.6029C138.697 22.1511 138.584 22.6331 138.385 23.049C138.281 23.2662 138.083 23.5357 137.79 23.857C137.506 24.1782 137.119 24.4667 136.628 24.7217Z" fill="white"/>
<path fill-rule="evenodd" clip-rule="evenodd" d="M10.9943 12.4984H0.522705V17.0586C0.522705 23.8679 6.04281 29.3881 12.8522 29.3881C19.6616 29.3881 25.1819 23.8679 25.1819 17.0586V12.4984H14.3723V5.23581C14.3723 2.34416 12.0281 0 9.13646 0C6.24481 0 3.90065 2.34416 3.90065 5.23581H7.27859C7.27859 4.20973 8.11041 3.37794 9.13646 3.37794C10.1625 3.37794 10.9943 4.20973 10.9943 5.23581V12.4984ZM10.9943 15.8763V22.2944H14.3723V15.8763H21.8039V17.0586C21.8039 22.0026 17.796 26.0102 12.8522 26.0102C7.90841 26.0102 3.90065 22.0026 3.90065 17.0586V15.8763H10.9943Z" fill="white"/>
</svg>
