<svg width="203" height="233" viewBox="0 0 203 233" fill="none" xmlns="http://www.w3.org/2000/svg">
<rect x="0.54834" y="0.817139" width="201.455" height="231.401" fill="url(#paint0_linear_138_8679)"/>
<path d="M24.9157 197.067L25.9905 197.067L25.91 195.401L27.2626 196.278L27.8109 195.437L26.2975 194.64L27.8109 193.836L27.2626 193.003L25.91 193.88L25.9905 192.213L24.9157 192.213L24.9962 193.873L23.6509 193.003L23.1026 193.836L24.6233 194.64L23.1026 195.452L23.6509 196.285L24.9962 195.415L24.9157 197.067ZM31.3815 197.067L32.4562 197.067L32.3758 195.401L33.7284 196.278L34.2767 195.437L32.7633 194.64L34.2767 193.836L33.7284 193.003L32.3758 193.88L32.4562 192.213L31.3815 192.213L31.4619 193.873L30.1167 193.003L29.5684 193.836L31.0891 194.64L29.5684 195.452L30.1167 196.285L31.4619 195.415L31.3815 197.067ZM44.1668 202.66L45.7387 202.66L45.7387 200.562L47.1936 200.562L47.1936 199.188L45.7387 199.188L45.7387 192.111L43.3699 192.111L38.8883 199.136L38.8883 200.562L44.1668 200.562L44.1668 202.66ZM40.409 199.21L40.409 199.166L44.1376 193.405L44.1815 193.405L44.1815 199.21L40.409 199.21ZM52.3288 202.836C54.6025 202.836 56.2036 201.352 56.2036 199.21L56.2036 199.195C56.2036 197.177 54.7487 195.722 52.7309 195.722C51.6927 195.722 50.8154 196.124 50.3402 196.833L50.3036 196.833L50.6253 193.492L55.5895 193.492L55.5895 192.111L49.302 192.111L48.7829 198.193L50.2159 198.193C50.3548 197.959 50.5229 197.755 50.7203 197.587C51.1444 197.206 51.7073 197.016 52.358 197.016C53.6667 197.016 54.5952 197.93 54.6025 199.224L54.6025 199.239C54.6025 200.548 53.674 201.469 52.3434 201.469C51.1663 201.469 50.3036 200.738 50.1647 199.787L50.1574 199.729L48.5928 199.729L48.6001 199.816C48.7464 201.556 50.2159 202.836 52.3288 202.836ZM61.4265 202.836C63.7002 202.836 65.3014 201.352 65.3014 199.21L65.3014 199.195C65.3014 197.177 63.8465 195.722 61.8286 195.722C60.7904 195.722 59.9131 196.124 59.4379 196.833L59.4013 196.833L59.723 193.492L64.6872 193.492L64.6872 192.111L58.3997 192.111L57.8806 198.193L59.3136 198.193C59.4525 197.959 59.6207 197.755 59.8181 197.587C60.2421 197.206 60.8051 197.016 61.4557 197.016C62.7644 197.016 63.6929 197.93 63.7002 199.224L63.7002 199.239C63.7002 200.548 62.7717 201.469 61.4411 201.469C60.264 201.469 59.4013 200.738 59.2624 199.787L59.2551 199.729L57.6906 199.729L57.6979 199.816C57.8441 201.556 59.3136 202.836 61.4265 202.836ZM66.7518 202.66L73.9678 202.66L73.9678 201.279L68.9451 201.279L68.9451 201.213L71.3431 198.859C73.2366 196.987 73.7996 196.132 73.7996 194.925L73.7996 194.911C73.7996 193.207 72.352 191.935 70.3269 191.935C68.2651 191.935 66.664 193.302 66.664 195.189L66.664 195.232L68.214 195.232L68.214 195.189C68.2286 194.121 69.1132 193.288 70.3488 193.288C71.4162 193.288 72.1765 194.004 72.1839 195.006L72.1839 195.02C72.1839 195.839 71.8695 196.395 70.4658 197.799L66.7518 201.534L66.7518 202.66Z" fill="black"/>
<path d="M29.2426 144.24L30.3724 144.24L30.3724 142.353C33.6491 142.172 35.9654 140.488 35.9654 137.63L35.9654 137.607C35.9654 135.155 34.4061 133.867 31.2651 133.201L30.3724 133.02L30.3724 129.099C31.717 129.257 32.5418 129.935 32.7113 131.054L32.7339 131.155L35.7507 131.155L35.7281 130.963C35.5021 128.353 33.5022 126.749 30.3724 126.557L30.3724 124.659L29.2426 124.659L29.2426 126.546C26.0224 126.704 23.8417 128.478 23.8417 131.122L23.8417 131.144C23.8417 133.54 25.3783 134.941 28.3951 135.573L29.2426 135.754L29.2426 139.799C27.6042 139.652 26.8359 138.907 26.6438 137.867L26.6212 137.743L23.6044 137.743L23.6157 137.912C23.7965 140.579 25.9998 142.183 29.2426 142.353L29.2426 144.24ZM26.9941 130.896L26.9941 130.873C26.9941 129.969 27.7511 129.223 29.2426 129.088L29.2426 132.783C27.6155 132.421 26.9941 131.811 26.9941 130.896ZM32.813 137.924L32.813 137.946C32.813 138.963 32.0673 139.697 30.3724 139.822L30.3724 135.991C32.2481 136.398 32.813 136.952 32.813 137.924ZM49.6796 142.884C53.4082 142.884 55.9844 140.567 55.9844 137.155L55.9844 137.133C55.9844 134.059 53.7472 131.833 50.6513 131.833C49.0017 131.833 47.6571 132.5 46.9792 133.596L46.9114 133.596L47.3068 129.009L55.0014 129.009L55.0014 126.297L44.5951 126.297L43.8494 135.867L46.821 135.867C47.0131 135.528 47.2729 135.212 47.6006 134.963C48.1543 134.523 48.8661 134.274 49.7022 134.274C51.4648 134.274 52.719 135.483 52.7303 137.2L52.7303 137.223C52.7303 138.963 51.4761 140.183 49.6909 140.183C48.1204 140.183 46.9792 139.234 46.7419 138.003L46.7193 137.924L43.5669 137.924L43.5782 138.093C43.7816 140.816 46.1318 142.884 49.6796 142.884ZM57.2429 146.002L59.5253 146.002L61.1862 139.754L58.0677 139.754L57.2429 146.002ZM69.8907 142.884C73.6193 142.884 76.1955 140.567 76.1955 137.155L76.1955 137.133C76.1955 134.059 73.9583 131.833 70.8624 131.833C69.2128 131.833 67.8682 132.5 67.1903 133.596L67.1225 133.596L67.5179 129.009L75.2125 129.009L75.2125 126.297L64.8062 126.297L64.0605 135.867L67.0321 135.867C67.2242 135.528 67.484 135.212 67.8117 134.963C68.3653 134.523 69.0772 134.274 69.9133 134.274C71.6759 134.274 72.9301 135.483 72.9414 137.2L72.9414 137.223C72.9414 138.963 71.6872 140.183 69.902 140.183C68.3314 140.183 67.1903 139.234 66.953 138.003L66.9304 137.924L63.778 137.924L63.7893 138.093C63.9927 140.816 66.3428 142.884 69.8907 142.884ZM84.8548 142.884C88.4817 142.884 91.1369 140.511 91.1369 137.178L91.1369 137.155C91.1369 134.105 88.9788 131.867 85.8265 131.867C83.6232 131.867 82.0187 132.975 81.3747 134.489L81.3069 134.489C81.3069 134.319 81.3182 134.093 81.3295 133.867C81.4538 130.986 82.4933 128.715 84.8773 128.715C86.2106 128.715 87.1145 129.382 87.5213 130.365L87.5552 130.466L90.9223 130.466L90.8997 130.353C90.4138 127.834 88.041 126.015 84.8886 126.015C80.6403 126.015 78.0528 129.223 78.0528 134.568L78.0528 134.59C78.0528 140.116 80.9227 142.884 84.8548 142.884ZM81.8267 137.257L81.8267 137.234C81.8267 135.573 83.1373 134.387 84.8435 134.387C86.5383 134.387 87.8151 135.585 87.8151 137.279L87.8151 137.302C87.8151 138.907 86.4705 140.172 84.8096 140.172C83.1373 140.172 81.8267 138.895 81.8267 137.257ZM100.135 142.884C103.762 142.884 106.417 140.511 106.417 137.178L106.417 137.155C106.417 134.105 104.259 131.867 101.107 131.867C98.9036 131.867 97.2992 132.975 96.6551 134.489L96.5873 134.489C96.5873 134.319 96.5986 134.093 96.6099 133.867C96.7342 130.986 97.7737 128.715 100.158 128.715C101.491 128.715 102.395 129.382 102.802 130.365L102.836 130.466L106.203 130.466L106.18 130.353C105.694 127.834 103.321 126.015 100.169 126.015C95.9207 126.015 93.3333 129.223 93.3333 134.568L93.3333 134.59C93.3333 140.116 96.2032 142.884 100.135 142.884ZM97.1071 137.257L97.1071 137.234C97.1071 135.573 98.4178 134.387 100.124 134.387C101.819 134.387 103.095 135.585 103.095 137.279L103.095 137.302C103.095 138.907 101.751 140.172 100.09 140.172C98.4178 140.172 97.1071 138.895 97.1071 137.257Z" fill="black"/>
<path d="M26.897 115.72C29.3974 115.72 30.9181 114.499 30.9181 112.576L30.9181 112.569C30.9181 110.939 29.9823 110.054 27.8036 109.593L26.6485 109.352C25.3325 109.067 24.733 108.585 24.733 107.795L24.733 107.788C24.733 106.866 25.5664 106.245 26.8751 106.238C28.1253 106.238 28.9734 106.83 29.1196 107.81L29.1269 107.912L30.7207 107.912L30.7134 107.788C30.6037 106.018 29.0977 104.819 26.897 104.819C24.6672 104.819 23.0807 106.055 23.0734 107.853L23.0734 107.861C23.0734 109.425 24.075 110.376 26.144 110.814L27.2918 111.056C28.6882 111.363 29.2658 111.823 29.2658 112.671L29.2658 112.679C29.2658 113.666 28.3739 114.302 26.9628 114.302C25.5518 114.302 24.5794 113.695 24.4332 112.723L24.4186 112.628L22.8248 112.628L22.8321 112.737C22.9637 114.594 24.5283 115.72 26.897 115.72ZM34.5838 115.684C35.6 115.684 36.4919 115.157 36.9379 114.331L36.9672 114.331L36.9672 115.545L38.5536 115.545L38.5536 110.244C38.5536 108.702 37.3619 107.707 35.483 107.707C33.5894 107.707 32.4416 108.723 32.332 110.047L32.3246 110.127L33.8161 110.127L33.8307 110.061C33.9623 109.447 34.5253 109.016 35.4391 109.016C36.4188 109.016 36.9672 109.528 36.9672 110.376L36.9672 110.953L34.8762 111.078C33.0557 111.187 32.0176 112.006 32.0176 113.344L32.0176 113.359C32.0176 114.74 33.0484 115.684 34.5838 115.684ZM33.6114 113.322L33.6114 113.308C33.6114 112.657 34.1378 112.24 35.0882 112.182L36.9672 112.065L36.9672 112.664C36.9672 113.666 36.1264 114.419 35.0151 114.419C34.167 114.419 33.6114 113.995 33.6114 113.322ZM42.307 115.545L44.0032 115.545L46.7594 107.853L45.1145 107.853L43.1843 114.002L43.1478 114.002L41.2177 107.853L39.5361 107.853L42.307 115.545ZM48.6412 106.669C49.1603 106.669 49.5624 106.26 49.5624 105.763C49.5624 105.258 49.1603 104.849 48.6412 104.849C48.1294 104.849 47.72 105.258 47.72 105.763C47.72 106.26 48.1294 106.669 48.6412 106.669ZM47.8516 115.545L49.4308 115.545L49.4308 107.853L47.8516 107.853L47.8516 115.545ZM51.1809 115.545L52.7601 115.545L52.7601 111.063C52.7601 109.864 53.4766 109.06 54.5879 109.06C55.6845 109.06 56.2255 109.71 56.2255 110.866L56.2255 115.545L57.812 115.545L57.812 110.566C57.812 108.797 56.8397 107.707 55.1508 107.707C53.9884 107.707 53.1988 108.234 52.7967 109.016L52.7601 109.016L52.7601 107.853L51.1809 107.853L51.1809 115.545ZM62.8302 118.257C65.0016 118.257 66.3615 117.087 66.3615 115.333L66.3615 107.853L64.775 107.853L64.775 109.162L64.7384 109.162C64.2851 108.292 63.437 107.707 62.355 107.707C60.403 107.707 59.1162 109.221 59.1162 111.633L59.1162 111.641C59.1162 114.039 60.3883 115.552 62.3185 115.552C63.4224 115.552 64.2997 115.018 64.7384 114.185L64.775 114.185L64.775 115.238C64.775 116.312 64.0804 116.985 62.8229 116.985C61.8359 116.985 61.1706 116.649 60.9586 116.159L60.9294 116.1L59.3648 116.1L59.3721 116.166C59.6061 117.343 60.8562 118.257 62.8302 118.257ZM62.7644 114.265C61.5142 114.265 60.732 113.271 60.732 111.663L60.732 111.655C60.732 110.069 61.5142 109.06 62.7644 109.06C63.9634 109.06 64.775 110.076 64.775 111.655L64.775 111.663C64.775 113.249 63.9707 114.265 62.7644 114.265ZM70.9264 115.698C72.7395 115.698 74.0555 114.733 74.0555 113.329L74.0555 113.322C74.0555 112.218 73.456 111.597 71.8841 111.231L70.6339 110.946C69.8078 110.749 69.4934 110.427 69.4934 109.952L69.4934 109.944C69.4934 109.33 70.0271 108.928 70.8752 108.928C71.7671 108.928 72.2935 109.396 72.3886 110.069L72.3959 110.12L73.88 110.12L73.8727 110.032C73.7923 108.723 72.6956 107.707 70.8752 107.707C69.1059 107.707 67.9069 108.65 67.9069 110.025L67.9069 110.032C67.9069 111.151 68.6307 111.853 70.0929 112.189L71.3504 112.474C72.1765 112.671 72.4544 112.957 72.4544 113.454L72.4544 113.461C72.4544 114.082 71.8841 114.477 70.9337 114.477C69.9613 114.477 69.4349 114.061 69.2887 113.351L69.2741 113.278L67.7095 113.278L67.7168 113.344C67.8777 114.748 69.0036 115.698 70.9264 115.698ZM80.8238 115.684C81.84 115.684 82.732 115.157 83.178 114.331L83.2072 114.331L83.2072 115.545L84.7937 115.545L84.7937 110.244C84.7937 108.702 83.602 107.707 81.7231 107.707C79.8295 107.707 78.6817 108.723 78.572 110.047L78.5647 110.127L80.0562 110.127L80.0708 110.061C80.2024 109.447 80.7653 109.016 81.6792 109.016C82.6589 109.016 83.2072 109.528 83.2072 110.376L83.2072 110.953L81.1163 111.078C79.2958 111.187 78.2576 112.006 78.2576 113.344L78.2576 113.359C78.2576 114.74 79.2885 115.684 80.8238 115.684ZM79.8514 113.322L79.8514 113.308C79.8514 112.657 80.3778 112.24 81.3283 112.182L83.2072 112.065L83.2072 112.664C83.2072 113.666 82.3664 114.419 81.2552 114.419C80.4071 114.419 79.8514 113.995 79.8514 113.322ZM89.7534 115.698C91.6031 115.698 92.8898 114.514 93.058 112.971L93.0653 112.92L91.5446 112.92L91.5373 112.979C91.3472 113.812 90.7258 114.375 89.7534 114.375C88.5325 114.375 87.7209 113.388 87.7209 111.706L87.7209 111.699C87.7209 110.054 88.5178 109.031 89.7461 109.031C90.7769 109.031 91.3618 109.667 91.53 110.42L91.5446 110.478L93.0507 110.478L93.0434 110.427C92.9118 108.979 91.7128 107.707 89.7315 107.707C87.5382 107.707 86.1052 109.25 86.1052 111.684L86.1052 111.692C86.1052 114.156 87.5089 115.698 89.7534 115.698ZM97.6083 115.698C99.458 115.698 100.745 114.514 100.913 112.971L100.92 112.92L99.3995 112.92L99.3922 112.979C99.2021 113.812 98.5806 114.375 97.6083 114.375C96.3873 114.375 95.5758 113.388 95.5758 111.706L95.5758 111.699C95.5758 110.054 96.3727 109.031 97.601 109.031C98.6318 109.031 99.2167 109.667 99.3849 110.42L99.3995 110.478L100.906 110.478L100.898 110.427C100.767 108.979 99.5676 107.707 97.5863 107.707C95.393 107.707 93.9601 109.25 93.9601 111.684L93.9601 111.692C93.9601 114.156 95.3638 115.698 97.6083 115.698ZM105.463 115.698C107.664 115.698 109.111 114.178 109.111 111.699L109.111 111.684C109.111 109.221 107.649 107.707 105.456 107.707C103.27 107.707 101.815 109.228 101.815 111.684L101.815 111.699C101.815 114.17 103.255 115.698 105.463 115.698ZM105.47 114.375C104.235 114.375 103.431 113.403 103.431 111.699L103.431 111.684C103.431 110.003 104.242 109.031 105.456 109.031C106.691 109.031 107.496 110.003 107.496 111.684L107.496 111.699C107.496 113.395 106.706 114.375 105.47 114.375ZM113.069 115.698C114.239 115.698 115.021 115.165 115.424 114.39L115.46 114.39L115.46 115.545L117.047 115.545L117.047 107.853L115.46 107.853L115.46 112.342C115.46 113.541 114.744 114.338 113.632 114.338C112.536 114.338 111.995 113.695 111.995 112.533L111.995 107.853L110.416 107.853L110.416 112.84C110.416 114.609 111.381 115.698 113.069 115.698ZM118.731 115.545L120.31 115.545L120.31 111.063C120.31 109.864 121.027 109.06 122.138 109.06C123.235 109.06 123.776 109.71 123.776 110.866L123.776 115.545L125.362 115.545L125.362 110.566C125.362 108.797 124.39 107.707 122.701 107.707C121.538 107.707 120.749 108.234 120.347 109.016L120.31 109.016L120.31 107.853L118.731 107.853L118.731 115.545ZM129.708 115.698C130.029 115.698 130.329 115.662 130.512 115.632L130.512 114.411C130.395 114.426 130.256 114.441 130.088 114.441C129.423 114.441 129.072 114.207 129.072 113.424L129.072 109.111L130.512 109.111L130.512 107.853L129.072 107.853L129.072 105.85L127.456 105.85L127.456 107.853L126.352 107.853L126.352 109.111L127.456 109.111L127.456 113.52C127.456 115.055 128.187 115.698 129.708 115.698Z" fill="black"/>
<path d="M43.5791 41.5715L41.2271 55.3741H44.9888L47.3427 41.5715H43.5791Z" fill="black"/>
<path d="M38.0763 41.5877L34.3919 51.0007L33.9991 49.5794C33.2725 47.8669 31.2098 45.4074 28.7881 43.8575L32.157 55.368L36.1373 55.3612L42.0615 41.5848L38.0763 41.5877Z" fill="black"/>
<path d="M32.5693 42.5745C32.3507 41.7337 31.717 41.4832 30.9304 41.4532H25.0982L25.0498 41.7279C29.5884 42.829 32.5916 45.4819 33.8378 48.6718L32.5693 42.5745Z" fill="black"/>
<path d="M54.9688 44.2181C56.1994 44.1987 57.0915 44.4677 57.7842 44.7463L58.1238 44.906L58.6328 41.9144C57.8878 41.6348 56.72 41.3349 55.2629 41.3349C51.5457 41.3349 48.9257 43.207 48.9053 45.8899C48.8811 47.8724 50.7717 48.9792 52.1997 49.64C53.6655 50.3173 54.157 50.7478 54.1502 51.3525C54.1386 52.2765 52.9815 52.7003 51.9008 52.7003C50.3943 52.7003 49.5942 52.4923 48.3587 51.9776L47.874 51.757L47.3447 54.8462C48.2252 55.2323 49.8496 55.5641 51.536 55.5816C55.4903 55.5816 58.06 53.7317 58.0871 50.8649C58.1035 49.2966 57.1002 48.0997 54.9262 47.1177C53.6104 46.4772 52.8054 46.0515 52.8131 45.4052C52.8131 44.8315 53.4962 44.2181 54.9688 44.2181Z" fill="black"/>
<path d="M68.2874 41.5874H65.381C64.4783 41.5874 63.8069 41.8332 63.4102 42.733L57.8247 55.3823H61.7751C61.7751 55.3823 62.4194 53.6814 62.5655 53.3089C62.998 53.3089 66.8362 53.3147 67.3828 53.3147C67.495 53.7965 67.8414 55.3823 67.8414 55.3823H71.3313L68.2874 41.5874ZM63.6482 50.4837C63.9578 49.6913 65.1469 46.6262 65.1469 46.6262C65.1266 46.664 65.4536 45.828 65.6481 45.3085L65.9015 46.4985C65.9015 46.4985 66.6223 49.7939 66.7733 50.4837H63.6482Z" fill="black"/>
<defs>
<linearGradient id="paint0_linear_138_8679" x1="101.577" y1="-58.5555" x2="278.601" y2="160.675" gradientUnits="userSpaceOnUse">
<stop stop-color="#B2D0CE"/>
<stop offset="1" stop-color="#EAEAEA"/>
</linearGradient>
</defs>
</svg>
