<svg width="153" height="30" viewBox="0 0 153 30" fill="none" xmlns="http://www.w3.org/2000/svg">
<path d="M4.57673 3.27384C6.64518 1.29898 9.45385 0.146303 12.3005 0.00292374C13.2748 0.00292374 14.252 0.00876922 15.2262 0C15.1765 1.04448 15.2262 2.09188 15.1969 3.13631C15.0595 5.471 14.1964 7.75303 12.7423 9.58451C10.8523 12.048 7.96175 13.7009 4.89272 14.1281C3.55277 14.3446 2.1923 14.2071 0.843572 14.2451C0.866957 13.0953 0.79383 11.9426 0.884544 10.7957C1.14787 7.952 2.49075 5.22819 4.57673 3.27384Z" fill="white"/>
<path d="M16.1282 0C17.1727 0.0116923 18.2171 -0.00584671 19.2645 0.00584558C21.8713 0.190148 24.443 1.19073 26.4059 2.9257C28.571 4.78349 30.0543 7.44001 30.4348 10.2779C30.6013 11.5944 30.4963 12.9256 30.5607 14.248C29.6476 14.2451 28.738 14.2422 27.8249 14.248C25.581 14.1866 23.3751 13.461 21.4968 12.2381C20.6308 11.6179 19.7414 10.9889 19.0919 10.1287C17.6671 8.53716 16.6987 6.53891 16.333 4.43242C16.058 2.96954 16.1691 1.47749 16.1282 0Z" fill="white"/>
<path d="M0.845282 15.0847C1.77274 15.1374 2.70312 15.0408 3.6276 15.1432C7.58604 15.228 11.4275 17.4516 13.4784 20.8366C14.6545 22.7324 15.2865 24.9794 15.2046 27.2119C15.2016 27.9431 15.2133 28.6714 15.1928 29.4002C13.7241 29.3561 12.2408 29.476 10.7868 29.1921C7.5568 28.6481 4.58726 26.7258 2.79963 23.9817C1.44506 21.9864 0.769231 19.5493 0.839434 17.1415C0.839434 16.4539 0.839436 15.7693 0.845282 15.0847Z" fill="white"/>
<path d="M25.6173 15.3947C27.2091 15.0407 28.85 15.0992 30.4681 15.0992L30.5384 15.1694C30.5032 16.6995 30.6231 18.2472 30.316 19.7598C29.6694 23.1536 27.4226 26.1848 24.4003 27.8495C22.519 28.8968 20.3599 29.4116 18.2095 29.3883C17.522 29.3913 16.8315 29.3764 16.144 29.3972C16.144 28.1304 16.0913 26.8576 16.2347 25.5967C16.5682 22.5451 18.2183 19.7042 20.591 17.785C22.0597 16.6264 23.7858 15.7868 25.6173 15.3947Z" fill="white"/>
<path d="M42.5488 23.7336C42.5488 24.2487 42.3704 24.6845 42.0142 25.041C41.6773 25.3779 41.2513 25.5463 40.7365 25.5463C40.2411 25.5463 39.8249 25.3779 39.4885 25.041C39.1516 24.6845 38.9832 24.2487 38.9832 23.7336V5.36961C38.9832 4.85455 39.1516 4.42863 39.4885 4.09188C39.8447 3.73531 40.2807 3.55701 40.796 3.55701C41.3107 3.55701 41.7269 3.73531 42.044 4.09188C42.3804 4.42863 42.5488 4.85455 42.5488 5.36961V23.7336Z" fill="white"/>
<path d="M56.8615 9.64844C57.3763 9.64844 57.8024 9.82669 58.1393 10.1833C58.4757 10.5201 58.6441 10.946 58.6441 11.461V19.0087C58.6441 21.1086 58.06 22.7726 56.8913 24.0009C55.722 25.2291 54.0385 25.8434 51.8393 25.8434C49.6406 25.8434 47.9566 25.2291 46.7878 24.0009C45.6389 22.7726 45.0642 21.1086 45.0642 19.0087V11.461C45.0642 10.946 45.2327 10.5201 45.5696 10.1833C45.9065 9.82669 46.332 9.64844 46.8473 9.64844C47.3625 9.64844 47.7881 9.82669 48.125 10.1833C48.4619 10.5201 48.6304 10.946 48.6304 11.461V19.0087C48.6304 20.2171 48.8979 21.1185 49.4325 21.7128C49.9675 22.2873 50.7697 22.5745 51.8393 22.5745C52.9293 22.5745 53.7413 22.2873 54.2763 21.7128C54.8109 21.1185 55.0785 20.2171 55.0785 19.0087V11.461C55.0785 10.946 55.2469 10.5201 55.5838 10.1833C55.9202 9.82669 56.3463 9.64844 56.8615 9.64844Z" fill="white"/>
<path d="M69.3686 9.35144C70.9535 9.35144 72.1223 9.73773 72.8753 10.5103C73.6279 11.2631 74.1233 12.2437 74.3606 13.4521L73.8558 13.1847L74.0936 12.7093C74.3309 12.2536 74.6975 11.7683 75.193 11.2532C75.6879 10.7183 76.2824 10.2726 76.9756 9.91604C77.689 9.53961 78.4812 9.35144 79.3532 9.35144C80.7795 9.35144 81.8591 9.65851 82.5918 10.2726C83.3449 10.8867 83.8596 11.7088 84.1371 12.739C84.4145 13.7493 84.5533 14.8785 84.5533 16.1265V23.7336C84.5533 24.2487 84.3848 24.6845 84.0479 25.041C83.711 25.3779 83.2854 25.5463 82.7702 25.5463C82.2554 25.5463 81.8293 25.3779 81.4925 25.041C81.1556 24.6845 80.9871 24.2487 80.9871 23.7336V16.1265C80.9871 15.4727 80.9083 14.8884 80.7498 14.3733C80.5912 13.8384 80.3039 13.4125 79.8877 13.0955C79.4721 12.7786 78.8775 12.6201 78.1052 12.6201C77.3521 12.6201 76.7085 12.7786 76.1734 13.0955C75.6384 13.4125 75.2326 13.8384 74.9552 14.3733C74.6975 14.8884 74.5687 15.4727 74.5687 16.1265V23.7336C74.5687 24.2487 74.4003 24.6845 74.0639 25.041C73.727 25.3779 73.3009 25.5463 72.7862 25.5463C72.2709 25.5463 71.8448 25.3779 71.5084 25.041C71.1715 24.6845 71.0031 24.2487 71.0031 23.7336V16.1265C71.0031 15.4727 70.9238 14.8884 70.7653 14.3733C70.6067 13.8384 70.3194 13.4125 69.9037 13.0955C69.4875 12.7786 68.893 12.6201 68.1206 12.6201C67.3681 12.6201 66.724 12.7786 66.1889 13.0955C65.6543 13.4125 65.2481 13.8384 64.9706 14.3733C64.7135 14.8884 64.5847 15.4727 64.5847 16.1265V23.7336C64.5847 24.2487 64.4163 24.6845 64.0794 25.041C63.7425 25.3779 63.3169 25.5463 62.8016 25.5463C62.2864 25.5463 61.8608 25.3779 61.5239 25.041C61.187 24.6845 61.0186 24.2487 61.0186 23.7336V11.4612C61.0186 10.9462 61.187 10.5202 61.5239 10.1835C61.8608 9.82686 62.2864 9.6486 62.8016 9.6486C63.3169 9.6486 63.7425 9.82686 64.0794 10.1835C64.4163 10.5202 64.5847 10.9462 64.5847 11.4612V12.739L64.1388 12.6498C64.3172 12.3131 64.5649 11.9564 64.8815 11.5801C65.1985 11.1839 65.585 10.8174 66.0408 10.4806C66.4961 10.1438 67.0014 9.8764 67.5558 9.67828C68.1107 9.46039 68.7151 9.35144 69.3686 9.35144Z" fill="white"/>
<path d="M90.2845 23.7335C90.2845 24.2486 90.116 24.6844 89.7791 25.0409C89.4427 25.3778 89.0166 25.5462 88.5014 25.5462C87.9866 25.5462 87.5606 25.3778 87.2237 25.0409C86.8873 24.6844 86.7188 24.2486 86.7188 23.7335V11.4611C86.7188 10.9461 86.8873 10.5202 87.2237 10.1834C87.5606 9.8268 87.9866 9.64854 88.5014 9.64854C89.0166 9.64854 89.4427 9.8268 89.7791 10.1834C90.116 10.5202 90.2845 10.9461 90.2845 11.4611V23.7335ZM88.4717 7.71703C87.7984 7.71703 87.3227 7.60809 87.0453 7.39014C86.7684 7.17225 86.6296 6.78596 86.6296 6.23127V5.66667C86.6296 5.09221 86.7783 4.70587 87.075 4.5078C87.3921 4.2899 87.8677 4.18091 88.5014 4.18091C89.195 4.18091 89.6805 4.2899 89.9575 4.5078C90.2349 4.72569 90.3736 5.11198 90.3736 5.66667V6.23127C90.3736 6.80578 90.225 7.20198 89.9278 7.41987C89.631 7.618 89.1455 7.71703 88.4717 7.71703Z" fill="white"/>
<path d="M100.962 9.35144C102.428 9.35144 103.537 9.65851 104.29 10.2726C105.063 10.8867 105.587 11.7088 105.865 12.739C106.162 13.7493 106.311 14.8785 106.311 16.1265V23.7336C106.311 24.2487 106.142 24.6845 105.805 25.041C105.469 25.3779 105.043 25.5463 104.528 25.5463C104.013 25.5463 103.587 25.3779 103.25 25.041C102.913 24.6845 102.745 24.2487 102.745 23.7336V16.1265C102.745 15.4727 102.656 14.8884 102.478 14.3733C102.319 13.8384 102.022 13.4125 101.586 13.0955C101.15 12.7786 100.526 12.6201 99.7141 12.6201C98.9214 12.6201 98.2481 12.7786 97.6932 13.0955C97.1586 13.4125 96.7425 13.8384 96.4452 14.3733C96.1678 14.8884 96.029 15.4727 96.029 16.1265V23.7336C96.029 24.2487 95.8611 24.6845 95.5242 25.041C95.1873 25.3779 94.7612 25.5463 94.2465 25.5463C93.7312 25.5463 93.3051 25.3779 92.9687 25.041C92.6318 24.6845 92.4634 24.2487 92.4634 23.7336V11.4612C92.4634 10.9462 92.6318 10.5202 92.9687 10.1835C93.3051 9.82686 93.7312 9.6486 94.2465 9.6486C94.7612 9.6486 95.1873 9.82686 95.5242 10.1835C95.8611 10.5202 96.029 10.9462 96.029 11.4612V12.739L95.5836 12.6498C95.762 12.3131 96.0191 11.9564 96.356 11.5801C96.6929 11.1839 97.0893 10.8174 97.5446 10.4806C98.0004 10.1438 98.5156 9.8764 99.0898 9.67828C99.6645 9.46039 100.288 9.35144 100.962 9.35144Z" fill="white"/>
<path d="M123.953 17.6122C123.953 19.2367 123.586 20.6729 122.853 21.921C122.14 23.1492 121.169 24.11 119.941 24.8032C118.733 25.4968 117.376 25.8436 115.87 25.8436C114.365 25.8436 112.998 25.4968 111.769 24.8032C110.561 24.11 109.59 23.1492 108.857 21.921C108.144 20.6729 107.788 19.2367 107.788 17.6122C107.788 15.9878 108.144 14.5615 108.857 13.3333C109.59 12.0852 110.561 11.1146 111.769 10.4212C112.998 9.70801 114.365 9.35144 115.87 9.35144C117.376 9.35144 118.733 9.70801 119.941 10.4212C121.169 11.1146 122.14 12.0852 122.853 13.3333C123.586 14.5615 123.953 15.9878 123.953 17.6122ZM120.387 17.6122C120.387 16.6019 120.179 15.7303 119.763 14.9973C119.366 14.2445 118.822 13.6602 118.128 13.2441C117.455 12.8281 116.702 12.6201 115.87 12.6201C115.038 12.6201 114.275 12.8281 113.582 13.2441C112.908 13.6602 112.363 14.2445 111.948 14.9973C111.551 15.7303 111.353 16.6019 111.353 17.6122C111.353 18.6028 111.551 19.4744 111.948 20.2272C112.363 20.9602 112.908 21.5347 113.582 21.9507C114.275 22.3667 115.038 22.5747 115.87 22.5747C116.702 22.5747 117.455 22.3667 118.128 21.9507C118.822 21.5347 119.366 20.9602 119.763 20.2272C120.179 19.4744 120.387 18.6028 120.387 17.6122Z" fill="white"/>
<path d="M137.243 9.64844C137.758 9.64844 138.184 9.82669 138.521 10.1833C138.857 10.5201 139.026 10.946 139.026 11.461V19.0087C139.026 21.1086 138.442 22.7726 137.273 24.0009C136.104 25.2291 134.42 25.8434 132.221 25.8434C130.022 25.8434 128.338 25.2291 127.17 24.0009C126.021 22.7726 125.446 21.1086 125.446 19.0087V11.461C125.446 10.946 125.614 10.5201 125.951 10.1833C126.288 9.82669 126.714 9.64844 127.229 9.64844C127.744 9.64844 128.17 9.82669 128.507 10.1833C128.844 10.5201 129.012 10.946 129.012 11.461V19.0087C129.012 20.2171 129.279 21.1185 129.814 21.7128C130.349 22.2873 131.151 22.5745 132.221 22.5745C133.311 22.5745 134.123 22.2873 134.658 21.7128C135.193 21.1185 135.46 20.2171 135.46 19.0087V11.461C135.46 10.946 135.629 10.5201 135.965 10.1833C136.302 9.82669 136.728 9.64844 137.243 9.64844Z" fill="white"/>
<path d="M140.48 23.0799C140.282 22.8025 140.192 22.4459 140.212 22.0101C140.232 21.5743 140.49 21.1979 140.985 20.8809C141.302 20.6828 141.639 20.6036 141.995 20.6432C142.351 20.663 142.698 20.8413 143.035 21.1781C143.61 21.7526 144.214 22.1983 144.848 22.5153C145.482 22.8322 146.274 22.9907 147.225 22.9907C147.522 22.9709 147.849 22.9313 148.206 22.8718C148.562 22.7926 148.869 22.6341 149.127 22.3964C149.404 22.1389 149.543 21.7526 149.543 21.2375C149.543 20.8017 149.394 20.455 149.097 20.1975C148.8 19.94 148.404 19.7221 147.908 19.5438C147.433 19.3654 146.898 19.1971 146.304 19.0386C145.69 18.8603 145.056 18.6622 144.402 18.4443C143.768 18.2264 143.184 17.949 142.649 17.6122C142.114 17.2557 141.678 16.7901 141.341 16.2157C141.005 15.6411 140.836 14.9181 140.836 14.0464C140.836 13.0559 141.113 12.214 141.668 11.5207C142.223 10.8273 142.936 10.2924 143.808 9.91604C144.699 9.53961 145.63 9.35144 146.601 9.35144C147.215 9.35144 147.859 9.43066 148.533 9.58915C149.206 9.72782 149.85 9.96553 150.464 10.3023C151.078 10.6193 151.593 11.0452 152.009 11.5801C152.227 11.8772 152.356 12.2338 152.395 12.6498C152.435 13.0658 152.247 13.4422 151.831 13.779C151.534 14.0167 151.187 14.1257 150.791 14.1058C150.395 14.0663 150.068 13.9276 149.81 13.6899C149.473 13.254 149.018 12.9073 148.443 12.6498C147.888 12.3923 147.245 12.2635 146.512 12.2635C146.215 12.2635 145.888 12.3031 145.531 12.3824C145.194 12.4418 144.898 12.5904 144.64 12.8281C144.382 13.046 144.253 13.4026 144.253 13.8979C144.253 14.3535 144.402 14.72 144.699 14.9973C144.997 15.2549 145.392 15.4728 145.888 15.6511C146.403 15.8096 146.948 15.968 147.522 16.1265C148.116 16.285 148.721 16.4732 149.335 16.6911C149.949 16.909 150.513 17.1962 151.029 17.5528C151.544 17.9094 151.959 18.375 152.277 18.9494C152.594 19.5041 152.752 20.2173 152.752 21.0889C152.752 22.0993 152.455 22.961 151.86 23.6742C151.266 24.3873 150.523 24.932 149.632 25.3085C148.741 25.6652 147.829 25.8436 146.898 25.8436C145.729 25.8436 144.561 25.6454 143.392 25.249C142.223 24.8329 141.252 24.11 140.48 23.0799Z" fill="white"/>
</svg>
