<svg width="137" height="23" viewBox="0 0 137 23" fill="none" xmlns="http://www.w3.org/2000/svg">
<path fill-rule="evenodd" clip-rule="evenodd" d="M14.504 0.552124C12.334 0.552124 10.5748 2.31128 10.5748 4.48128C10.5748 6.65131 12.334 8.41044 14.504 8.41044C16.6741 8.41044 18.4332 6.65131 18.4332 4.48128C18.4332 2.31128 16.6741 0.552124 14.504 0.552124ZM6.82162 8.19606C10.9117 8.19606 14.2272 11.5117 14.2272 15.6017V21.6715H10.5437V15.6017C10.5437 15.166 10.4689 14.748 10.3314 14.3596L4.92072 19.7703L2.31603 17.1655L7.53388 11.9477C7.30333 11.903 7.0652 11.8796 6.82162 11.8796H0.751953V8.19606H6.82162ZM22.2781 8.19606C18.1881 8.19606 14.8724 11.5117 14.8724 15.6017V21.6715H18.556V15.6017C18.556 15.2606 18.6019 14.93 18.6878 14.6162L24.3478 20.2761L26.9526 17.6713L21.2926 12.0115C21.6064 11.9255 21.937 11.8796 22.2781 11.8796H28.3477V8.19606H22.2781Z" fill="white"/>
<path d="M34.2412 21.8837V0.710938H40.2376L46.6667 18.8546H47.1303V0.710938H50.5612V21.8837H44.6886L38.1048 3.70913H37.6721V21.8837H34.2412Z" fill="white"/>
<path d="M64.3063 19.1017L65.1717 19.0091L65.2336 21.5128C62.8844 21.9867 60.8032 22.2237 58.9899 22.2237C56.7026 22.2237 55.0541 21.595 54.0445 20.3382C53.0554 19.0811 52.5608 17.0721 52.5608 14.3109C52.5608 8.8296 54.7965 6.08899 59.2681 6.08899C63.5953 6.08899 65.7591 8.44838 65.7591 13.1672L65.5427 15.578H55.9607C55.9814 16.8557 56.2596 17.7933 56.7954 18.3908C57.331 18.9885 58.3305 19.2871 59.7936 19.2871C61.2565 19.2871 62.7609 19.2255 64.3063 19.1017ZM62.4517 12.9818C62.4517 11.4569 62.2044 10.3957 61.7098 9.79809C61.2361 9.17991 60.4221 8.87081 59.2681 8.87081C58.1142 8.87081 57.2694 9.1902 56.7336 9.82898C56.2183 10.4678 55.9504 11.5187 55.93 12.9818H62.4517Z" fill="white"/>
<path d="M75.768 9.30366H71.5024V16.1037C71.5024 17.3607 71.5953 18.1952 71.7807 18.6073C71.9661 19.0193 72.44 19.2256 73.2025 19.2256L75.7371 19.1328L75.8915 21.8218C74.5109 22.0897 73.4601 22.2238 72.7389 22.2238C70.9875 22.2238 69.782 21.8218 69.1226 21.0183C68.4836 20.2145 68.1644 18.7001 68.1644 16.4747V9.30366H66.186V6.42911H68.1644V1.94727H71.5024V6.42911H75.768V9.30366Z" fill="white"/>
<path d="M75.78 6.42908H79.0874L81.5291 19.0092H82.1472L85.0838 6.73818H88.5456L91.4819 19.0092H92.1L94.5111 6.42908H97.8491L94.5727 21.8837H89.2256L86.8146 11.2818L84.4038 21.8837H79.0565L75.78 6.42908Z" fill="white"/>
<path d="M99.9999 8.09809C101.071 6.75869 102.843 6.08899 105.316 6.08899C107.789 6.08899 109.551 6.75869 110.602 8.09809C111.673 9.43747 112.209 11.4466 112.209 14.1254C112.209 16.8041 111.694 18.8235 110.663 20.1835C109.633 21.5437 107.851 22.2237 105.316 22.2237C102.782 22.2237 100.999 21.5437 99.969 20.1835C98.9385 18.8235 98.4236 16.8041 98.4236 14.1254C98.4236 11.4466 98.9489 9.43747 99.9999 8.09809ZM102.534 18.1435C103.008 18.9679 103.936 19.38 105.316 19.38C106.697 19.38 107.624 18.9679 108.098 18.1435C108.572 17.3194 108.809 15.9697 108.809 14.0945C108.809 12.2193 108.551 10.8902 108.036 10.1072C107.542 9.32413 106.635 8.93262 105.316 8.93262C103.997 8.93262 103.08 9.32413 102.565 10.1072C102.071 10.8902 101.824 12.2193 101.824 14.0945C101.824 15.9697 102.061 17.3194 102.534 18.1435Z" fill="white"/>
<path d="M114.01 21.8836V6.42898H117.348V8.28355C119.1 7.15021 120.851 6.41867 122.603 6.08899V9.45809C120.831 9.80838 119.316 10.2617 118.059 10.8181L117.379 11.0963V21.8836H114.01Z" fill="white"/>
<path d="M127.002 21.8837H123.633V0H127.002V12.6418L128.918 12.4564L132.566 6.42911H136.337L131.886 13.6619L136.584 21.8837H132.782L129.011 15.3618L127.002 15.5781V21.8837Z" fill="white"/>
</svg>
