<svg width="25" height="26" viewBox="0 0 25 26" fill="none" xmlns="http://www.w3.org/2000/svg">
<path d="M12.3584 8.7392C10.0885 8.7392 8.23612 10.5916 8.23612 12.8614C8.23612 15.1313 10.0885 16.9836 12.3584 16.9836C14.6282 16.9836 16.4806 15.1313 16.4806 12.8614C16.4806 10.5916 14.6282 8.7392 12.3584 8.7392ZM24.722 12.8614C24.722 11.1544 24.7375 9.46283 24.6416 7.75889C24.5458 5.77973 24.0942 4.02321 22.6469 2.57595C21.1965 1.12559 19.4432 0.677189 17.464 0.581323C15.757 0.485458 14.0654 0.50092 12.3614 0.50092C10.6544 0.50092 8.96285 0.485458 7.2589 0.581323C5.27973 0.677189 3.52323 1.12869 2.07595 2.57595C0.625595 4.02631 0.177191 5.77973 0.0813245 7.75889C-0.0145416 9.46592 0.000919675 11.1575 0.000919675 12.8614C0.000919675 14.5654 -0.0145416 16.26 0.0813245 17.964C0.177191 19.9432 0.628688 21.6996 2.07595 23.1469C3.52632 24.5972 5.27973 25.0456 7.2589 25.1416C8.96594 25.2374 10.6575 25.2219 12.3614 25.2219C14.0685 25.2219 15.76 25.2374 17.464 25.1416C19.4432 25.0456 21.1997 24.5942 22.6469 23.1469C24.0974 21.6966 24.5458 19.9432 24.6416 17.964C24.7405 16.26 24.722 14.5685 24.722 12.8614ZM12.3584 19.2041C8.84842 19.2041 6.01573 16.3713 6.01573 12.8614C6.01573 9.35151 8.84842 6.51881 12.3584 6.51881C15.8683 6.51881 18.701 9.35151 18.701 12.8614C18.701 16.3713 15.8683 19.2041 12.3584 19.2041ZM18.9607 7.74034C18.1412 7.74034 17.4795 7.07855 17.4795 6.25905C17.4795 5.43956 18.1412 4.77778 18.9607 4.77778C19.7802 4.77778 20.4421 5.43956 20.4421 6.25905C20.4422 6.45364 20.4041 6.64638 20.3298 6.8262C20.2554 7.00604 20.1463 7.16942 20.0087 7.30703C19.8711 7.44462 19.7077 7.55373 19.5279 7.62808C19.348 7.70243 19.1553 7.74057 18.9607 7.74034Z" fill="white"/>
</svg>
