<svg width="189" height="190" viewBox="0 0 189 190" fill="none" xmlns="http://www.w3.org/2000/svg">
<rect y="0.944824" width="188.276" height="188.276" fill="#252626"/>
<rect x="30.124" y="31.069" width="60.2482" height="60.2482" rx="18.8276" fill="#B2D0CE"/>
<path d="M64.1144 58.0551H70.3902V55.9632C70.3902 53.662 68.5075 51.7793 66.2063 51.7793H53.6546C51.3535 51.7793 49.4707 53.662 49.4707 55.9632V66.423C49.4707 68.7241 51.3535 70.6069 53.6546 70.6069H66.2063C68.5075 70.6069 70.3902 68.7241 70.3902 66.423V64.331H64.1144C62.9638 64.331 62.0224 63.3896 62.0224 62.239V60.1471C62.0224 58.9965 62.9638 58.0551 64.1144 58.0551Z" stroke="#212121" stroke-width="3.13793" stroke-miterlimit="10" stroke-linecap="round" stroke-linejoin="round"/>
<path d="M65.1661 62.2358C65.7438 62.2358 66.2121 61.7675 66.2121 61.1898C66.2121 60.6121 65.7438 60.1438 65.1661 60.1438C64.5884 60.1438 64.1201 60.6121 64.1201 61.1898C64.1201 61.7675 64.5884 62.2358 65.1661 62.2358Z" fill="#212121"/>
<path d="M70.395 58.0551V64.331" stroke="#212121" stroke-width="3.13793" stroke-miterlimit="10" stroke-linecap="round" stroke-linejoin="round"/>
<path d="M31.469 151.207L33.5319 151.207L33.5319 140.437L33.6027 140.437L38.0016 151.207L39.6803 151.207L44.0792 140.437L44.15 140.437L44.15 151.207L46.213 151.207L46.213 136.615L43.6039 136.615L38.8713 148.264L38.8106 148.264L34.0881 136.615L31.469 136.615L31.469 151.207ZM50.0596 154.756C52.1427 154.756 53.2551 153.907 54.0439 151.702L58.008 140.569L55.7023 140.569L53.0225 149.225L52.9517 149.225L50.2719 140.569L47.9056 140.569L51.7787 151.217L51.5967 151.723C51.2326 152.754 50.6663 153.027 49.6349 153.027C49.3416 153.027 49.0888 152.987 48.9169 152.946L48.9169 154.655C49.1798 154.706 49.6349 154.756 50.0596 154.756ZM69.4732 151.419C72.1732 151.419 73.9227 149.275 73.9227 145.888L73.9227 145.878C73.9227 142.49 72.1631 140.366 69.4934 140.366C67.9866 140.366 66.7731 141.125 66.1361 142.379L66.0855 142.379L66.0855 136.615L63.9012 136.615L63.9012 151.207L66.0855 151.207L66.0855 149.407L66.1361 149.407C66.763 150.651 67.9462 151.419 69.4732 151.419ZM68.8968 149.538C67.2383 149.538 66.0754 148.102 66.0754 145.888L66.0754 145.878C66.0754 143.673 67.2484 142.237 68.8968 142.237C70.6159 142.237 71.6878 143.633 71.6878 145.878L71.6878 145.888C71.6878 148.153 70.6159 149.538 68.8968 149.538ZM79.3974 151.419C81.0154 151.419 82.0974 150.681 82.6536 149.609L82.7042 149.609L82.7042 151.207L84.8986 151.207L84.8986 140.569L82.7042 140.569L82.7042 146.778C82.7042 148.436 81.7131 149.538 80.176 149.538C78.6592 149.538 77.9109 148.648 77.9109 147.041L77.9109 140.569L75.7266 140.569L75.7266 147.465C75.7266 149.912 77.0614 151.419 79.3974 151.419ZM91.2025 151.419C92.7295 151.419 93.9025 150.651 94.5396 149.407L94.5801 149.407L94.5801 151.207L96.7745 151.207L96.7745 136.615L94.5801 136.615L94.5801 142.379L94.5396 142.379C93.9025 141.125 92.6891 140.366 91.1823 140.366C88.5126 140.366 86.753 142.49 86.753 145.878L86.753 145.888C86.753 149.275 88.4924 151.419 91.2025 151.419ZM91.7789 149.538C90.0497 149.538 88.9879 148.153 88.9879 145.888L88.9879 145.878C88.9879 143.633 90.0598 142.237 91.7789 142.237C93.4172 142.237 94.5902 143.673 94.5902 145.878L94.5902 145.888C94.5902 148.102 93.4273 149.538 91.7789 149.538ZM103.847 154.959C106.85 154.959 108.731 153.341 108.731 150.914L108.731 140.569L106.537 140.569L106.537 142.379L106.486 142.379C105.859 141.175 104.686 140.366 103.19 140.366C100.49 140.366 98.7099 142.46 98.7099 145.797L98.7099 145.807C98.7099 149.124 100.469 151.217 103.139 151.217C104.666 151.217 105.88 150.479 106.486 149.326L106.537 149.326L106.537 150.782C106.537 152.269 105.576 153.199 103.837 153.199C102.472 153.199 101.551 152.734 101.258 152.056L101.218 151.975L99.0537 151.975L99.0638 152.066C99.3874 153.695 101.117 154.959 103.847 154.959ZM103.756 149.437C102.027 149.437 100.945 148.062 100.945 145.837L100.945 145.827C100.945 143.633 102.027 142.237 103.756 142.237C105.414 142.237 106.537 143.643 106.537 145.827L106.537 145.837C106.537 148.032 105.425 149.437 103.756 149.437ZM115.602 151.419C118.18 151.419 119.818 149.882 120.162 148.193L120.183 148.082L118.109 148.082L118.079 148.163C117.806 148.962 116.947 149.629 115.652 149.629C113.913 149.629 112.811 148.456 112.77 146.444L120.304 146.444L120.304 145.706C120.304 142.51 118.474 140.366 115.49 140.366C112.507 140.366 110.586 142.591 110.586 145.918L110.586 145.928C110.586 149.285 112.477 151.419 115.602 151.419ZM115.5 142.156C116.926 142.156 117.958 143.056 118.14 144.897L112.8 144.897C112.993 143.117 114.085 142.156 115.5 142.156ZM125.9 151.419C126.345 151.419 126.759 151.369 127.012 151.328L127.012 149.639C126.851 149.66 126.658 149.68 126.426 149.68C125.506 149.68 125.02 149.356 125.02 148.274L125.02 142.308L127.012 142.308L127.012 140.569L125.02 140.569L125.02 137.798L122.785 137.798L122.785 140.569L121.258 140.569L121.258 142.308L122.785 142.308L122.785 148.406C122.785 150.529 123.797 151.419 125.9 151.419Z" fill="white"/>
</svg>
