<svg width="273" height="143" viewBox="0 0 273 143" fill="none" xmlns="http://www.w3.org/2000/svg">
<path d="M0.0166016 142.148H272.075V4.05312e-06H0.0166016V142.148Z" fill="url(#paint0_linear_138_8832)"/>
<path d="M218.98 39.4478H222.884C225.083 39.4478 226.386 38.3662 226.386 36.547V36.5326C226.386 35.1646 225.484 34.1619 223.994 33.99V33.9613C225.061 33.8109 225.863 32.7724 225.863 31.7052V31.6908C225.863 30.1438 224.667 29.1124 222.898 29.1124H218.98V39.4478ZM222.605 30.2512C223.851 30.2512 224.56 30.8099 224.56 31.8269V31.8413C224.56 32.9586 223.729 33.5674 222.203 33.5674H220.27V30.2512H222.605ZM222.569 34.6776C224.216 34.6776 225.061 35.2864 225.061 36.4825V36.4968C225.061 37.6858 224.238 38.3089 222.69 38.3089H220.27V34.6776H222.569ZM230.197 39.591C231.328 39.591 232.088 39.0825 232.489 38.3877H232.517V39.4478H233.764V31.9988H232.517V36.3822C232.517 37.65 231.751 38.488 230.576 38.488C229.43 38.488 228.864 37.8219 228.864 36.6114V31.9988H227.618V36.8335C227.618 38.531 228.564 39.591 230.197 39.591ZM236.106 41.9546C237.452 41.9546 238.104 41.3386 238.634 39.9133L241.542 31.9988H240.231L238.168 38.2015H238.14L236.084 31.9988H234.752L237.517 39.4549L237.366 39.8775C237.065 40.7227 236.629 40.9232 235.841 40.9232C235.69 40.9232 235.547 40.9017 235.44 40.8802V41.8973C235.597 41.926 235.862 41.9546 236.106 41.9546Z" fill="#79767D"/>
<path d="M29.786 39.6197C31.9491 39.6197 33.6036 38.3376 33.9975 36.3607L34.0119 36.2891H32.7083L32.6868 36.3536C32.2356 37.7144 31.2328 38.4307 29.786 38.4307C27.7304 38.4307 26.391 36.7905 26.391 34.2765V34.2693C26.391 31.7553 27.7233 30.1294 29.786 30.1294C31.24 30.1294 32.2571 30.86 32.6582 32.1134L32.7083 32.271H34.0119L33.9975 32.1994C33.6036 30.244 31.9348 28.9405 29.786 28.9405C26.9067 28.9405 25.066 31.0176 25.066 34.2693V34.2765C25.066 37.5282 26.9139 39.6197 29.786 39.6197ZM37.8867 39.591C39.0184 39.591 39.7776 39.0825 40.1787 38.3877H40.2074V39.4478H41.4536V31.9988H40.2074V36.3822C40.2074 37.65 39.441 38.488 38.2664 38.488C37.1204 38.488 36.5545 37.8219 36.5545 36.6114V31.9988H35.3083V36.8335C35.3083 38.531 36.2537 39.591 37.8867 39.591ZM43.0795 39.4478H44.3258V34.8495C44.3258 33.7178 44.9561 33.0445 45.923 33.0445C46.2238 33.0445 46.4888 33.0804 46.5891 33.1162V31.9057C46.4888 31.8914 46.3026 31.8556 46.0877 31.8556C45.2497 31.8556 44.6051 32.3999 44.3544 33.2594H44.3258V31.9988H43.0795V39.4478ZM47.6062 39.4478H48.8524V34.8495C48.8524 33.7178 49.4827 33.0445 50.4496 33.0445C50.7505 33.0445 51.0155 33.0804 51.1157 33.1162V31.9057C51.0155 31.8914 50.8292 31.8556 50.6144 31.8556C49.7764 31.8556 49.1318 32.3999 48.8811 33.2594H48.8524V31.9988H47.6062V39.4478ZM54.8402 39.591C56.4661 39.591 57.6837 38.6169 57.9272 37.385L57.9415 37.3134H56.7168L56.6953 37.3778C56.4804 38.0153 55.8143 38.488 54.8689 38.488C53.5438 38.488 52.6986 37.5927 52.67 36.0599H58.0347V35.6015C58.0347 33.3669 56.7956 31.8556 54.7614 31.8556C52.7273 31.8556 51.4094 33.4385 51.4094 35.7448V35.7519C51.4094 38.0941 52.6986 39.591 54.8402 39.591ZM54.7543 32.9586C55.8429 32.9586 56.6451 33.639 56.7669 35.0858H52.6915C52.8276 33.6963 53.6727 32.9586 54.7543 32.9586ZM59.2952 39.4478H60.5415V35.0643C60.5415 33.7966 61.3079 32.9586 62.4825 32.9586C63.6285 32.9586 64.1943 33.6247 64.1943 34.8352V39.4478H65.4406V34.6131C65.4406 32.9156 64.4952 31.8556 62.8621 31.8556C61.7305 31.8556 60.9712 32.3641 60.5702 33.0589H60.5415V31.9988H59.2952V39.4478ZM70.1177 39.591C71.8008 39.591 73.0256 38.4952 73.2262 37.077L73.2333 37.0269H72.0085L71.9942 37.0842C71.7865 37.915 71.1347 38.488 70.1177 38.488C68.8284 38.488 67.9403 37.4638 67.9403 35.7305V35.7233C67.9403 34.033 68.8069 32.9586 70.1033 32.9586C71.1992 32.9586 71.8008 33.6175 71.9871 34.3624L72.0014 34.4197H73.219L73.2118 34.3624C73.0543 33.0875 71.9584 31.8556 70.1033 31.8556C68.0334 31.8556 66.6654 33.3597 66.6654 35.709V35.7161C66.6654 38.0869 68.0048 39.591 70.1177 39.591ZM75.0812 30.7382C75.5181 30.7382 75.8619 30.3873 75.8619 29.9575C75.8619 29.5206 75.5181 29.1768 75.0812 29.1768C74.6515 29.1768 74.3005 29.5206 74.3005 29.9575C74.3005 30.3873 74.6515 30.7382 75.0812 30.7382ZM74.4581 39.4478H75.7044V31.9988H74.4581V39.4478ZM80.4674 39.591C82.0932 39.591 83.3109 38.6169 83.5544 37.385L83.5687 37.3134H82.3439L82.3224 37.3778C82.1076 38.0153 81.4415 38.488 80.496 38.488C79.171 38.488 78.3258 37.5927 78.2972 36.0599H83.6618V35.6015C83.6618 33.3669 82.4227 31.8556 80.3886 31.8556C78.3545 31.8556 77.0366 33.4385 77.0366 35.7448V35.7519C77.0366 38.0941 78.3258 39.591 80.4674 39.591ZM80.3814 32.9586C81.4701 32.9586 82.2723 33.639 82.3941 35.0858H78.3186C78.4547 33.6963 79.2999 32.9586 80.3814 32.9586Z" fill="#79767D"/>
<rect x="24.4644" y="58.6746" width="24.4478" height="24.4478" rx="9.7791" fill="#B2D0CE"/>
<path d="M40.2523 72.4945C40.1842 72.2546 40.1017 72.0458 40.0048 71.8685C39.9079 71.691 39.7691 71.5179 39.5882 71.3486C39.4075 71.1793 39.245 71.043 39.1008 70.9394C38.9568 70.8357 38.7589 70.7198 38.5073 70.5914C38.256 70.4631 38.0568 70.3677 37.9102 70.3049C37.7634 70.2422 37.551 70.1562 37.2733 70.0471C37.027 69.9489 36.8436 69.8738 36.723 69.822C36.6025 69.7701 36.444 69.6965 36.2475 69.601C36.051 69.5055 35.9043 69.4209 35.8073 69.3473C35.7104 69.2736 35.6069 69.1836 35.4968 69.0772C35.3868 68.9708 35.3095 68.8576 35.2649 68.7375C35.2204 68.6175 35.1981 68.4865 35.1981 68.3446C35.1981 67.9736 35.3553 67.6706 35.6697 67.436C35.9842 67.2014 36.3903 67.0841 36.8882 67.0841C37.1082 67.0841 37.3324 67.1154 37.5602 67.1782C37.788 67.241 37.9833 67.3118 38.1457 67.391C38.3083 67.4702 38.4616 67.5575 38.6057 67.653C38.7498 67.7485 38.852 67.8207 38.9123 67.8699C38.9726 67.919 39.0108 67.9517 39.0263 67.9681C39.0946 68.0227 39.1651 68.0417 39.2385 68.0254C39.3171 68.02 39.3774 67.9763 39.4194 67.8945L40.0562 66.6994C40.1191 66.5903 40.1061 66.4866 40.0169 66.3883C39.9854 66.3555 39.9463 66.3174 39.8988 66.2737C39.8518 66.23 39.7495 66.1509 39.5922 66.0362C39.435 65.9216 39.2686 65.8193 39.0932 65.7293C38.9176 65.6393 38.6896 65.5478 38.4092 65.4551C38.1289 65.3622 37.8393 65.2995 37.5406 65.2668V63.8261C37.5406 63.7497 37.517 63.6869 37.47 63.6378C37.4229 63.5888 37.3626 63.5641 37.2891 63.5641H36.2278C36.1597 63.5641 36.1008 63.59 36.051 63.6419C36.0012 63.6938 35.9763 63.7551 35.9763 63.8261V65.2995C35.1536 65.4632 34.4854 65.8288 33.9719 66.3964C33.4584 66.9639 33.2015 67.6241 33.2015 68.3773C33.2015 68.601 33.2239 68.8138 33.2684 69.0157C33.3129 69.2177 33.368 69.3991 33.4335 69.5601C33.499 69.7211 33.592 69.8794 33.7125 70.0349C33.8331 70.1904 33.9471 70.3242 34.0545 70.436C34.1619 70.5478 34.3021 70.6638 34.475 70.7838C34.648 70.9039 34.796 71.0009 34.9192 71.0745C35.0424 71.1479 35.2061 71.2327 35.4104 71.328C35.6148 71.4236 35.776 71.4958 35.8939 71.545C36.0119 71.5941 36.173 71.6624 36.3774 71.7495C36.6604 71.8641 36.87 71.9528 37.0063 72.0156C37.1426 72.0784 37.3155 72.1657 37.5252 72.2776C37.7347 72.3893 37.888 72.4917 37.985 72.5845C38.0819 72.6773 38.1697 72.7919 38.2483 72.9283C38.327 73.0647 38.3664 73.2093 38.3664 73.3622C38.3664 73.7933 38.2052 74.1261 37.8829 74.3606C37.5606 74.5953 37.1871 74.7127 36.7627 74.7127C36.569 74.7127 36.375 74.6909 36.1811 74.6473C35.4999 74.5052 34.8632 74.1642 34.2711 73.624L34.2553 73.6076C34.2082 73.5477 34.1452 73.5231 34.0667 73.5341C33.9829 73.545 33.9226 73.5778 33.8859 73.6324L33.0763 74.7374C32.9976 74.8465 33.0029 74.9584 33.092 75.073C33.1182 75.1058 33.1641 75.155 33.2296 75.2204C33.2952 75.286 33.417 75.3881 33.5951 75.5276C33.7733 75.6668 33.9672 75.7976 34.1768 75.9205C34.3864 76.0433 34.6524 76.1646 34.9747 76.2848C35.297 76.4047 35.631 76.4892 35.9769 76.5383V77.9708C35.9769 78.0418 36.0018 78.1032 36.0516 78.1551C36.1014 78.207 36.1603 78.2328 36.2284 78.2328H37.2897C37.3631 78.2328 37.4234 78.2083 37.4706 78.1592C37.5177 78.1102 37.5411 78.0474 37.5411 77.9708V76.5383C38.3745 76.3965 39.0518 76.024 39.5731 75.4209C40.0945 74.8179 40.3553 74.0989 40.3553 73.264C40.355 72.9912 40.321 72.7347 40.2523 72.4945Z" fill="black"/>
<path d="M69.973 79.3342C73.1782 79.3342 75.0942 77.4004 75.0942 74.5891V66.2001H73.4826V74.4817C73.4826 76.4693 72.2113 77.848 69.973 77.848C67.7348 77.848 66.4455 76.4693 66.4455 74.4817V66.2001H64.834V74.5891C64.834 77.4004 66.7678 79.3342 69.973 79.3342ZM81.8268 79.3342C84.7814 79.3342 86.5988 77.8839 86.5988 75.5919V75.5829C86.5988 73.6133 85.4886 72.5389 82.8385 71.9569L81.4061 71.6436C79.7229 71.2765 78.944 70.614 78.944 69.5575V69.5486C78.944 68.3041 80.0721 67.4804 81.8 67.4715C83.4384 67.4715 84.5396 68.2504 84.7366 69.5665L84.7545 69.6918H86.366L86.3571 69.5575C86.2138 67.4446 84.3695 65.9853 81.8448 65.9853C79.1857 65.9853 77.3056 67.4715 77.2966 69.5933V69.6023C77.2966 71.4914 78.4784 72.6284 81.0032 73.1835L82.4357 73.4969C84.2084 73.8908 84.9515 74.5265 84.9515 75.6635V75.6725C84.9515 77.0065 83.7786 77.848 81.9164 77.848C80.0452 77.848 78.7918 77.0512 78.6038 75.753L78.5859 75.6277H76.9743L76.9833 75.753C77.1444 77.9644 79.0335 79.3342 81.8268 79.3342ZM88.4879 79.1194H92.8301C96.671 79.1194 98.9271 76.7289 98.9271 72.6553V72.6374C98.9271 68.5816 96.6531 66.2001 92.8301 66.2001H88.4879V79.1194ZM90.0995 77.669V67.6505H92.7227C95.6503 67.6505 97.2798 69.4322 97.2798 72.6553V72.6732C97.2798 75.8784 95.6503 77.669 92.7227 77.669H90.0995Z" fill="black"/>
<path d="M185.577 80.4176H186.651V78.9134C188.755 78.7523 190.519 77.5436 190.519 75.3949V75.386C190.519 73.4969 189.23 72.5478 186.929 71.9928L186.651 71.9301V67.8206C187.86 67.9728 188.701 68.7159 188.827 69.844L188.836 69.9246H190.394L190.385 69.7903C190.259 67.9102 188.71 66.5941 186.651 66.4061V64.902H185.577V66.415C183.464 66.612 181.942 67.9102 181.942 69.8261V69.8351C181.942 71.6078 183.142 72.6016 185.371 73.1387L185.577 73.1925V77.4989C184.037 77.3288 183.374 76.4603 183.195 75.4307L183.177 75.3233H181.62L181.629 75.4486C181.772 77.4452 183.455 78.7165 185.577 78.9045V80.4176ZM183.5 69.7545V69.7455C183.5 68.8771 184.216 68.0087 185.577 67.8206V71.6704C184.046 71.2944 183.5 70.6319 183.5 69.7545ZM186.705 73.4611C188.469 73.8908 188.961 74.5086 188.961 75.4844V75.4934C188.961 76.5319 188.316 77.3825 186.651 77.5168V73.4521L186.705 73.4611ZM197.216 79.1194H198.908L204.656 67.6953V66.2001H196.106V67.6326H203.062V67.6684L197.216 79.1194ZM210.95 79.3342C213.689 79.3342 215.641 77.7943 215.641 75.6277V75.6098C215.641 74.0161 214.522 72.6911 212.866 72.3061V72.2703C214.28 71.8316 215.176 70.7572 215.176 69.3964V69.3785C215.176 67.4267 213.394 65.9853 210.95 65.9853C208.506 65.9853 206.724 67.4267 206.724 69.3785V69.3964C206.724 70.7572 207.619 71.8316 209.034 72.2703V72.3061C207.378 72.6911 206.258 74.0161 206.258 75.6098V75.6277C206.258 77.7943 208.21 79.3342 210.95 79.3342ZM210.95 71.6704C209.392 71.6704 208.327 70.7841 208.327 69.5307V69.5128C208.327 68.2593 209.392 67.373 210.95 67.373C212.508 67.373 213.573 68.2593 213.573 69.5128V69.5307C213.573 70.7841 212.508 71.6704 210.95 71.6704ZM210.95 77.9286C209.168 77.9286 207.897 76.9259 207.897 75.5292V75.5113C207.897 74.0967 209.159 73.085 210.95 73.085C212.74 73.085 214.003 74.0967 214.003 75.5113V75.5292C214.003 76.9259 212.731 77.9286 210.95 77.9286ZM216.563 81.6531H217.673L218.981 77.275H217.351L216.563 81.6531ZM225.892 65.9853C223.251 65.9853 221.317 67.8296 221.317 70.3723V70.3902C221.317 72.8433 223.144 74.6608 225.606 74.6608C227.361 74.6608 228.686 73.7296 229.205 72.5837H229.241C229.241 72.6821 229.241 72.7717 229.232 72.8612C229.16 75.574 228.211 77.9107 225.803 77.9107C224.478 77.9107 223.556 77.2482 223.171 76.1828L223.135 76.0843H221.496L221.523 76.2007C221.953 78.0808 223.591 79.3342 225.785 79.3342C228.945 79.3342 230.799 76.7916 230.799 72.4404V72.4225C230.799 67.6326 228.274 65.9853 225.892 65.9853ZM225.883 73.2462C224.182 73.2462 222.956 72.0375 222.956 70.3543V70.3364C222.956 68.707 224.263 67.4178 225.91 67.4178C227.567 67.4178 228.856 68.7339 228.856 70.3902V70.3991C228.856 72.0465 227.576 73.2462 225.883 73.2462ZM232.482 79.1194H241.005V77.6869H234.693V77.6511L237.764 74.4996C240.137 72.0733 240.79 71.0079 240.79 69.5933V69.5754C240.79 67.552 239.08 65.9853 236.743 65.9853C234.335 65.9853 232.401 67.6416 232.401 69.8798V69.9336H233.959V69.8888C233.959 68.5011 235.159 67.3909 236.77 67.3909C238.176 67.3909 239.17 68.3399 239.179 69.656V69.6739C239.179 70.7483 238.776 71.4466 237.03 73.2641L232.482 78.0092V79.1194Z" fill="black"/>
<rect x="24.4644" y="92.9015" width="24.4478" height="24.4478" rx="9.7791" fill="#B2D0CE"/>
<path d="M38.7254 109.54C37.0243 109.54 35.5472 108.575 34.8104 107.163H38.7254V105.804H34.369C34.335 105.584 34.3113 105.356 34.3113 105.125C34.3113 104.894 34.335 104.667 34.369 104.446H38.7254V103.088H34.8104C35.5472 101.675 37.0209 100.711 38.7254 100.711C39.8222 100.711 40.8239 101.112 41.5946 101.774L42.8 100.575C41.7203 99.6076 40.2907 99.0134 38.7254 99.0134C36.0667 99.0134 33.8087 100.715 32.97 103.088H30.5762V104.446H32.6542C32.6271 104.67 32.6135 104.894 32.6135 105.125C32.6135 105.356 32.6271 105.58 32.6542 105.804H30.5762V107.163H32.97C33.8087 109.536 36.0667 111.237 38.7254 111.237C40.2907 111.237 41.7203 110.643 42.8 109.675L41.5946 108.473C40.8239 109.135 39.8222 109.54 38.7254 109.54Z" fill="black"/>
<path d="M64.834 113.346H72.838V111.896H66.4455V107.455H72.5067V106.023H66.4455V101.877H72.838V100.427H64.834V113.346ZM80.1079 113.561C83.3131 113.561 85.229 111.627 85.229 108.816V100.427H83.6175V108.709C83.6175 110.696 82.3461 112.075 80.1079 112.075C77.8696 112.075 76.5804 110.696 76.5804 108.709V100.427H74.9688V108.816C74.9688 111.627 76.9027 113.561 80.1079 113.561ZM87.7359 113.346H89.3474V108.234H92.4362L95.2027 113.346H97.0918L94.1015 107.983C95.713 107.473 96.6978 106.085 96.6978 104.295V104.277C96.6978 101.949 95.0684 100.427 92.5794 100.427H87.7359V113.346ZM89.3474 106.811V101.859H92.3646C94.0209 101.859 95.0326 102.773 95.0326 104.313V104.331C95.0326 105.915 94.0925 106.811 92.4362 106.811H89.3474Z" fill="black"/>
<path d="M185.577 114.644H186.651V113.14C188.755 112.979 190.519 111.77 190.519 109.622V109.613C190.519 107.724 189.23 106.775 186.929 106.22L186.651 106.157V102.047C187.86 102.2 188.701 102.943 188.827 104.071L188.836 104.151H190.394L190.385 104.017C190.259 102.137 188.71 100.821 186.651 100.633V99.1288H185.577V100.642C183.464 100.839 181.942 102.137 181.942 104.053V104.062C181.942 105.835 183.142 106.828 185.371 107.366L185.577 107.419V111.726C184.037 111.556 183.374 110.687 183.195 109.658L183.177 109.55H181.62L181.629 109.675C181.772 111.672 183.455 112.943 185.577 113.131V114.644ZM183.5 103.981V103.972C183.5 103.104 184.216 102.236 185.577 102.047V105.897C184.046 105.521 183.5 104.859 183.5 103.981ZM186.705 107.688C188.469 108.118 188.961 108.735 188.961 109.711V109.72C188.961 110.759 188.316 111.609 186.651 111.744V107.679L186.705 107.688ZM197.216 113.346H198.908L204.656 101.922V100.427H196.106V101.859H203.062V101.895L197.216 113.346ZM210.95 113.561C213.689 113.561 215.641 112.021 215.641 109.855V109.837C215.641 108.243 214.522 106.918 212.866 106.533V106.497C214.28 106.058 215.176 104.984 215.176 103.623V103.605C215.176 101.654 213.394 100.212 210.95 100.212C208.506 100.212 206.724 101.654 206.724 103.605V103.623C206.724 104.984 207.619 106.058 209.034 106.497V106.533C207.378 106.918 206.258 108.243 206.258 109.837V109.855C206.258 112.021 208.21 113.561 210.95 113.561ZM210.95 105.897C209.392 105.897 208.327 105.011 208.327 103.758V103.74C208.327 102.486 209.392 101.6 210.95 101.6C212.508 101.6 213.573 102.486 213.573 103.74V103.758C213.573 105.011 212.508 105.897 210.95 105.897ZM210.95 112.155C209.168 112.155 207.897 111.153 207.897 109.756V109.738C207.897 108.324 209.159 107.312 210.95 107.312C212.74 107.312 214.003 108.324 214.003 109.738V109.756C214.003 111.153 212.731 112.155 210.95 112.155ZM216.563 115.88H217.673L218.981 111.502H217.351L216.563 115.88ZM225.892 100.212C223.251 100.212 221.317 102.056 221.317 104.599V104.617C221.317 107.07 223.144 108.888 225.606 108.888C227.361 108.888 228.686 107.956 229.205 106.811H229.241C229.241 106.909 229.241 106.999 229.232 107.088C229.16 109.801 228.211 112.138 225.803 112.138C224.478 112.138 223.556 111.475 223.171 110.41L223.135 110.311H221.496L221.523 110.428C221.953 112.308 223.591 113.561 225.785 113.561C228.945 113.561 230.799 111.018 230.799 106.667V106.649C230.799 101.859 228.274 100.212 225.892 100.212ZM225.883 107.473C224.182 107.473 222.956 106.264 222.956 104.581V104.563C222.956 102.934 224.263 101.645 225.91 101.645C227.567 101.645 228.856 102.961 228.856 104.617V104.626C228.856 106.273 227.576 107.473 225.883 107.473ZM232.482 113.346H241.005V111.914H234.693V111.878L237.764 108.726C240.137 106.3 240.79 105.235 240.79 103.82V103.802C240.79 101.779 239.08 100.212 236.743 100.212C234.335 100.212 232.401 101.868 232.401 104.107V104.16H233.959V104.116C233.959 102.728 235.159 101.618 236.77 101.618C238.176 101.618 239.17 102.567 239.179 103.883V103.901C239.179 104.975 238.776 105.673 237.03 107.491L232.482 112.236V113.346Z" fill="black"/>
<defs>
<linearGradient id="paint0_linear_138_8832" x1="136.452" y1="178.62" x2="208.456" y2="-17.4138" gradientUnits="userSpaceOnUse">
<stop stop-color="#B2D0CE"/>
<stop offset="1" stop-color="#EAEAEA"/>
</linearGradient>
</defs>
</svg>
