<svg width="21" height="22" viewBox="0 0 21 22" fill="none" xmlns="http://www.w3.org/2000/svg">
<path d="M4.69995 7C6.35681 7 7.69995 5.65685 7.69995 4C7.69995 2.34315 6.35681 1 4.69995 1C3.0431 1 1.69995 2.34315 1.69995 4C1.69995 5.65685 3.0431 7 4.69995 7Z" stroke="#CCCCCC" stroke-width="1.5" stroke-linejoin="round"/>
<path d="M16.7 21C18.3568 21 19.7 19.6569 19.7 18C19.7 16.3431 18.3568 15 16.7 15C15.0431 15 13.7 16.3431 13.7 18C13.7 19.6569 15.0431 21 16.7 21Z" stroke="#CCCCCC" stroke-width="1.5" stroke-linejoin="round"/>
<path d="M9.69993 4H14.8318C16.8327 4 17.5936 6.61309 15.9055 7.68732L5.4943 14.3127C3.80622 15.3869 4.56715 18 6.56805 18H11.6999" stroke="#CCCCCC" stroke-width="1.5"/>
</svg>
