<svg width="18" height="18" viewBox="0 0 18 18" fill="none" xmlns="http://www.w3.org/2000/svg">
<path d="M4.1875 0.75V2.8125M13.8125 0.75V2.8125M0.75 15.1875V4.875C0.75 3.73591 1.67341 2.8125 2.8125 2.8125H15.1875C16.3266 2.8125 17.25 3.73591 17.25 4.875V15.1875M0.75 15.1875C0.75 16.3266 1.67341 17.25 2.8125 17.25H15.1875C16.3266 17.25 17.25 16.3266 17.25 15.1875M0.75 15.1875V8.3125C0.75 7.17345 1.67341 6.25 2.8125 6.25H15.1875C16.3266 6.25 17.25 7.17345 17.25 8.3125V15.1875M9 9.6875H9.00687V9.69437H9V9.6875ZM9 11.75H9.00687V11.7569H9V11.75ZM9 13.8125H9.00687V13.8194H9V13.8125ZM6.9375 11.75H6.94437V11.7569H6.9375V11.75ZM6.9375 13.8125H6.94437V13.8194H6.9375V13.8125ZM4.875 11.75H4.88188V11.7569H4.875V11.75ZM4.875 13.8125H4.88188V13.8194H4.875V13.8125ZM11.0625 9.6875H11.0694V9.69437H11.0625V9.6875ZM11.0625 11.75H11.0694V11.7569H11.0625V11.75ZM11.0625 13.8125H11.0694V13.8194H11.0625V13.8125ZM13.125 9.6875H13.1319V9.69437H13.125V9.6875ZM13.125 11.75H13.1319V11.7569H13.125V11.75Z" stroke="#ADADAF" stroke-width="1.5" stroke-linecap="round" stroke-linejoin="round"/>
</svg>
